<?xml version="1.0" encoding="utf-8"?>
<!-- Generator: Adobe Illustrator 17.0.0, SVG Export Plug-In . SVG Version: 6.00 Build 0)  -->
<!DOCTYPE svg PUBLIC "-//W3C//DTD SVG 1.1//EN" "http://www.w3.org/Graphics/SVG/1.1/DTD/svg11.dtd">
<svg version="1.1" id="Layer_1" xmlns="http://www.w3.org/2000/svg" xmlns:xlink="http://www.w3.org/1999/xlink" x="0px" y="0px"
	 width="300px" height="180px" viewBox="0 0 300 180" enable-background="new 0 0 300 180" xml:space="preserve">
<g>
	<path fill="#c5c9d1" d="M223.945,159.513H82.63V18.199h141.314V159.513z M86.63,155.513h133.314V22.199H86.63V155.513z"/>
	<rect x="122.385" y="81.689" fill="#c5c9d1" width="60.833" height="4"/>
	<rect x="129.518" y="92.023" fill="#c5c9d1" width="46.568" height="4"/>
	<path fill="#c5c9d1" d="M262.787,88.012c0-10.944-14.962-20.565-38.843-26.936v4.125c22.025,6.031,34.843,14.581,34.843,22.812
		c0,14.491-39.718,29.971-99.492,30.949l6.149-6.149l-2.828-2.829l-10.842,10.842l0.019,0.019l-0.019,0.019l10.842,10.842
		l2.828-2.828l-5.921-5.922C217.914,121.956,262.787,106.969,262.787,88.012z"/>
	<path fill="#c5c9d1" d="M111.357,116.6c-39.378-5.109-63.813-17.081-63.813-28.446c0-8.231,12.817-16.781,34.843-22.812v-4.125
		c-23.881,6.371-38.843,15.992-38.843,26.936c0,14.884,27.665,27.319,67.813,32.46V116.6z"/>
</g>
</svg>
