<?xml version="1.0" encoding="utf-8"?>
<!-- Generator: Adobe Illustrator 17.0.0, SVG Export Plug-In . SVG Version: 6.00 Build 0)  -->
<!DOCTYPE svg PUBLIC "-//W3C//DTD SVG 1.1//EN" "http://www.w3.org/Graphics/SVG/1.1/DTD/svg11.dtd">
<svg version="1.1" id="Layer_1" xmlns="http://www.w3.org/2000/svg" xmlns:xlink="http://www.w3.org/1999/xlink" x="0px" y="0px"
	 width="300px" height="180px" viewBox="0 0 300 180" enable-background="new 0 0 300 180" xml:space="preserve">
<g>
	<path fill="#c5c9d1" d="M258.566,94.64c0-0.002,0.001-0.004,0.002-0.006c0.081-0.318,0.15-0.636,0.205-0.957
		c0.004-0.023,0.009-0.046,0.013-0.07c0.052-0.311,0.093-0.624,0.12-0.938c0.002-0.022,0.005-0.044,0.007-0.067
		c0.027-0.325,0.043-0.651,0.043-0.979c0-0.005-0.001-0.01-0.001-0.016c0-0.005,0.001-0.009,0.001-0.014
		c0-0.026-0.004-0.052-0.005-0.079c-0.003-0.373-0.027-0.743-0.065-1.113c-0.016-0.165-0.04-0.33-0.063-0.494
		c-0.034-0.232-0.074-0.464-0.121-0.694c-0.039-0.192-0.076-0.384-0.123-0.575c-0.047-0.186-0.107-0.371-0.162-0.556
		c-0.126-0.423-0.275-0.843-0.446-1.26c-0.042-0.101-0.08-0.202-0.124-0.303c-0.122-0.281-0.257-0.56-0.399-0.839
		c-0.027-0.053-0.057-0.107-0.085-0.16c-6.39-12.137-31.674-21.963-66.219-26.387v4.014c10.863,1.409,20.581,3.343,28.97,5.64v0.025
		c18.548,5.079,30.564,11.944,33.896,18.9c0.019,0.041,0.037,0.082,0.056,0.122c0.22,0.475,0.402,0.95,0.541,1.425
		c0.004,0.015,0.011,0.03,0.015,0.046c0.047,0.163,0.08,0.326,0.117,0.49c0.037,0.165,0.072,0.33,0.098,0.494
		c0.022,0.135,0.043,0.27,0.058,0.405c0.031,0.275,0.053,0.55,0.055,0.825c0,0.03,0.004,0.06,0.004,0.089
		c-0.015,8.226-12.829,16.77-34.842,22.797v0.028c-16.752,4.587-38.827,7.717-64.649,8.14l6.149-6.149l-2.828-2.829l-10.842,10.842
		l0.019,0.019l-0.019,0.019l10.842,10.842l2.828-2.828l-5.921-5.922C210.95,125.622,254.094,112.149,258.566,94.64z"/>
	<rect x="126.183" y="96.479" fill="#c5c9d1" width="46.568" height="4"/>
	<polygon fill="#c5c9d1" points="126.183,86.145 119.05,86.145 119.05,90.145 126.183,90.145 172.75,90.145 179.883,90.145 
		179.883,86.145 172.75,86.145 	"/>
	<polygon fill="#c5c9d1" points="126.183,75.812 119.05,75.812 119.05,79.812 126.183,79.812 172.75,79.812 179.883,79.812 
		179.883,75.812 172.75,75.812 	"/>
	<polygon fill="#c5c9d1" points="172.75,55.145 172.75,55.135 126.183,55.135 126.183,55.145 119.05,55.145 119.05,59.145 
		179.883,59.145 179.883,55.145 	"/>
	<polygon fill="#c5c9d1" points="126.183,65.478 119.05,65.478 119.05,69.478 126.183,69.478 172.751,69.478 179.883,69.478 
		179.883,65.478 172.751,65.478 	"/>
	<rect x="119.05" y="44.801" fill="#c5c9d1" width="60.833" height="4"/>
	<path fill="#c5c9d1" d="M77.066,114.917c-0.318-0.09-0.635-0.181-0.948-0.272c-0.476-0.139-0.951-0.278-1.418-0.42
		c-0.284-0.086-0.562-0.173-0.843-0.26c-0.84-0.26-1.665-0.523-2.473-0.791c-0.266-0.088-0.535-0.175-0.798-0.264
		c-0.443-0.15-0.879-0.301-1.312-0.453c-0.272-0.096-0.542-0.192-0.81-0.288c-0.431-0.155-0.862-0.309-1.282-0.466
		c-0.135-0.05-0.265-0.102-0.399-0.152c-0.843-0.318-1.663-0.64-2.463-0.966c-0.249-0.101-0.498-0.202-0.742-0.304
		c-0.381-0.159-0.758-0.319-1.128-0.479c-0.243-0.105-0.48-0.211-0.718-0.317c-0.643-0.286-1.27-0.574-1.881-0.865
		c-0.219-0.104-0.442-0.208-0.657-0.312c-0.332-0.162-0.655-0.325-0.977-0.489c-0.229-0.116-0.456-0.233-0.68-0.349
		c-0.31-0.162-0.62-0.324-0.92-0.487c-0.233-0.126-0.457-0.254-0.683-0.381c-0.481-0.269-0.948-0.54-1.402-0.813
		c-0.221-0.133-0.442-0.265-0.657-0.398c-0.256-0.159-0.506-0.319-0.753-0.479c-0.211-0.137-0.418-0.275-0.622-0.413
		c-0.23-0.155-0.463-0.31-0.685-0.466c-0.366-0.258-0.721-0.517-1.064-0.776c-0.194-0.147-0.377-0.295-0.563-0.442
		c-0.197-0.156-0.392-0.313-0.581-0.47c-0.179-0.149-0.356-0.299-0.527-0.448c-0.203-0.178-0.398-0.356-0.59-0.535
		c-0.196-0.182-0.387-0.364-0.571-0.546c-0.222-0.22-0.439-0.441-0.644-0.662c-0.127-0.137-0.246-0.274-0.366-0.41
		c-0.16-0.183-0.315-0.366-0.463-0.549c-0.106-0.13-0.213-0.26-0.312-0.391c-0.221-0.289-0.43-0.579-0.621-0.869
		c-0.065-0.098-0.119-0.196-0.18-0.294c-0.137-0.219-0.267-0.439-0.387-0.659c-0.066-0.121-0.128-0.242-0.189-0.363
		c-0.112-0.224-0.214-0.448-0.308-0.671c-0.039-0.093-0.083-0.185-0.119-0.278c-0.118-0.305-0.218-0.611-0.302-0.916
		c-0.026-0.093-0.045-0.186-0.067-0.28c-0.057-0.234-0.104-0.469-0.14-0.703c-0.015-0.099-0.031-0.197-0.043-0.295
		c-0.037-0.31-0.062-0.62-0.062-0.929c0-0.006-0.001-0.013-0.001-0.019c0-0.244,0.013-0.489,0.036-0.734
		c0.006-0.067,0.018-0.134,0.026-0.201c0.021-0.179,0.045-0.359,0.078-0.538c0.014-0.079,0.033-0.157,0.05-0.236
		c0.036-0.17,0.076-0.34,0.122-0.51c0.022-0.079,0.046-0.157,0.07-0.236c0.052-0.173,0.11-0.346,0.173-0.519
		c0.027-0.073,0.054-0.147,0.083-0.22c0.073-0.185,0.152-0.37,0.237-0.555c0.027-0.06,0.054-0.12,0.083-0.18
		c0.104-0.215,0.216-0.43,0.336-0.645c0.016-0.029,0.031-0.058,0.047-0.087c0.437-0.766,0.977-1.531,1.62-2.292
		c0.002-0.002,0.004-0.004,0.006-0.007c0.209-0.248,0.43-0.494,0.661-0.741c0.017-0.018,0.034-0.035,0.05-0.053
		c0.222-0.235,0.453-0.47,0.695-0.704c0.017-0.017,0.035-0.034,0.052-0.051c0.252-0.244,0.514-0.487,0.788-0.729
		c0.003-0.002,0.005-0.005,0.008-0.007c5.691-5.043,15.859-9.796,29.622-13.564v-0.003c8.494-2.326,18.361-4.274,29.387-5.688
		v-4.011c-30.187,3.821-53.381,11.753-63.156,21.759c-0.015,0.015-0.029,0.031-0.044,0.046c-0.27,0.278-0.53,0.558-0.779,0.839
		c-0.036,0.04-0.071,0.081-0.107,0.121c-0.229,0.262-0.45,0.526-0.661,0.791c-0.036,0.045-0.073,0.09-0.108,0.136
		c-0.214,0.273-0.418,0.547-0.612,0.823c-0.022,0.032-0.046,0.063-0.069,0.095c-0.645,0.927-1.179,1.869-1.595,2.824
		c-0.03,0.068-0.056,0.137-0.084,0.205c-0.1,0.24-0.195,0.481-0.281,0.723c-0.034,0.094-0.064,0.189-0.095,0.284
		c-0.072,0.219-0.138,0.438-0.198,0.659c-0.028,0.104-0.056,0.209-0.082,0.314c-0.053,0.215-0.098,0.431-0.139,0.647
		c-0.02,0.106-0.042,0.211-0.059,0.318c-0.037,0.228-0.064,0.457-0.088,0.686c-0.01,0.092-0.023,0.184-0.031,0.277
		c-0.026,0.319-0.041,0.64-0.041,0.961c0,0.001,0,0.001,0,0.002c0,0.001,0,0.002,0,0.003c0,0.006,0.001,0.011,0.001,0.017
		c0.001,0.408,0.029,0.814,0.071,1.218c0.013,0.128,0.032,0.256,0.049,0.384c0.041,0.299,0.093,0.596,0.156,0.893
		c0.027,0.125,0.05,0.251,0.081,0.376c0.096,0.394,0.208,0.786,0.343,1.175c0.033,0.095,0.075,0.19,0.111,0.285
		c0.113,0.304,0.236,0.606,0.373,0.907c0.067,0.148,0.138,0.295,0.21,0.442c0.13,0.264,0.27,0.527,0.418,0.788
		c0.077,0.136,0.148,0.272,0.23,0.407c0.219,0.363,0.454,0.725,0.706,1.083c0.1,0.142,0.21,0.282,0.315,0.423
		c0.178,0.239,0.361,0.477,0.553,0.714c0.133,0.164,0.269,0.327,0.409,0.49c0.197,0.228,0.403,0.455,0.613,0.681
		c0.137,0.147,0.268,0.296,0.411,0.442c0.324,0.332,0.664,0.661,1.017,0.988c0.181,0.168,0.372,0.335,0.561,0.501
		c0.217,0.192,0.437,0.382,0.664,0.572c0.209,0.175,0.42,0.35,0.637,0.523c0.24,0.191,0.489,0.381,0.739,0.57
		c0.359,0.272,0.728,0.543,1.108,0.812c0.266,0.188,0.531,0.376,0.807,0.563c0.269,0.181,0.546,0.361,0.824,0.54
		c0.238,0.154,0.48,0.307,0.725,0.46c0.293,0.182,0.587,0.365,0.89,0.545c0.251,0.149,0.511,0.297,0.768,0.445
		c0.548,0.315,1.111,0.628,1.689,0.937c0.248,0.133,0.495,0.266,0.748,0.398c0.355,0.184,0.718,0.367,1.084,0.549
		c0.25,0.125,0.504,0.248,0.759,0.372c0.38,0.184,0.759,0.368,1.15,0.549c0.175,0.081,0.357,0.161,0.534,0.241
		c0.786,0.358,1.593,0.711,2.42,1.059c0.251,0.105,0.501,0.211,0.755,0.316c0.437,0.179,0.879,0.357,1.326,0.533
		c0.256,0.101,0.517,0.201,0.776,0.301c1.534,0.591,3.127,1.164,4.78,1.72c0.274,0.092,0.547,0.184,0.824,0.275
		c0.503,0.166,1.01,0.33,1.523,0.492c0.27,0.085,0.544,0.169,0.817,0.253c1.018,0.315,2.054,0.623,3.11,0.925
		c0.203,0.058,0.403,0.117,0.607,0.175c0.541,0.152,1.09,0.301,1.64,0.45c0.171,0.046,0.337,0.094,0.509,0.14v-0.003
		c8.598,2.294,18.34,4.171,28.97,5.532v-4.014c-10.879-1.411-20.61-3.349-29.008-5.65C78.028,115.191,77.547,115.054,77.066,114.917
		z"/>
</g>
</svg>
