<?xml version="1.0" encoding="iso-8859-1"?>
<!-- Generator: Adobe Illustrator 18.1.1, SVG Export Plug-In . SVG Version: 6.00 Build 0)  -->
<svg version="1.1" id="Capa_1" xmlns="http://www.w3.org/2000/svg" xmlns:xlink="http://www.w3.org/1999/xlink" x="0px" y="0px"
	 viewBox="0 0 266.514 266.514" style="enable-background:new 0 0 266.514 266.514;" xml:space="preserve">

	<g>
		<polygon style="fill:#c5c9d1;" points="252.476,95.184 181.768,24.476 144.576,24.476 215.284,95.184 		"/>
		<polygon style="fill:#c5c9d1;" points="199.902,95.184 129.194,24.476 93.808,24.476 164.515,95.184 		"/>
		<polygon style="fill:#c5c9d1;" points="149.134,95.184 78.426,24.476 39.417,24.476 110.125,95.184 		"/>
		<path style="fill:#c5c9d1;" d="M228.441,24.476H197.15l69.364,69.364V62.549C266.514,41.522,249.468,24.476,228.441,24.476z"/>
		<path style="fill:#c5c9d1;" d="M94.743,95.184L26.015,26.456C12.564,30.948,2.486,42.735,0.43,57.132
			c22.926,0.201,40.934,16.491,45.53,38.052H94.743z"/>
		<path style="fill:#c5c9d1;" d="M263.436,106.143l-0.082-0.082h-52.416l-0.082,0.082l-0.076-0.082h-50.61l-0.082,0.082
			l-0.076-0.082h-54.233l-0.082,0.082l-0.076-0.082H47.14c0,26.874-20.266,48.952-47.14,48.952v48.952
			c0,21.027,17.046,38.073,38.073,38.073h190.367c21.027,0,38.073-17.046,38.073-38.073v-97.903h-3.002L263.436,106.143z
			 M184.928,212.167v-87.112l43.556,43.556L184.928,212.167z"/>
		<path style="fill:#c5c9d1;" d="M0,119.556v22.768c21.588,0,36.023-16.437,36.24-36.262c0-0.152,0.022-0.299,0.022-0.451
			c0-3.612-0.49-7.109-1.387-10.427C30.78,80.112,17.835,68.897,0.005,68.897v23.676c2.97,0,5.689,0.99,7.919,2.616
			c3.361,2.453,5.575,6.396,5.575,10.878C13.494,113.513,7.452,119.556,0,119.556z"/>
	</g>

</svg>
