<?xml version="1.0" encoding="utf-8"?>
<!-- Generator: Adobe Illustrator 17.0.0, SVG Export Plug-In . SVG Version: 6.00 Build 0)  -->
<!DOCTYPE svg PUBLIC "-//W3C//DTD SVG 1.1//EN" "http://www.w3.org/Graphics/SVG/1.1/DTD/svg11.dtd">
<svg version="1.1" id="Layer_1" xmlns="http://www.w3.org/2000/svg" xmlns:xlink="http://www.w3.org/1999/xlink" x="0px" y="0px"
	 width="300px" height="180px" viewBox="0 0 300 180" enable-background="new 0 0 300 180" xml:space="preserve">
<g>
	<g>
		<path fill="#c5c9d1" d="M158.794,149.421L83.4,74.027V14.63h59.397l75.395,75.395L158.794,149.421z M87.4,72.369l71.395,71.395
			l53.74-53.74L141.139,18.63H87.4V72.369z"/>
	</g>
	<g>
		<path fill="#c5c9d1" d="M114.548,75.111c-3.027,0-5.874-1.179-8.014-3.32c-2.14-2.141-3.319-4.987-3.319-8.014
			c0-3.027,1.179-5.874,3.32-8.014c2.14-2.14,4.986-3.319,8.014-3.319c3.027,0,5.873,1.179,8.014,3.32
			c2.141,2.14,3.32,4.986,3.32,8.014c0,3.027-1.179,5.873-3.32,8.014S117.575,75.111,114.548,75.111z M114.548,56.444
			c-1.959,0-3.8,0.763-5.185,2.148c-1.386,1.385-2.148,3.227-2.148,5.186c0,1.958,0.763,3.8,2.148,5.186
			c1.385,1.385,3.227,2.148,5.186,2.148c1.958,0,3.8-0.763,5.186-2.148c1.385-1.385,2.148-3.227,2.148-5.186
			c0-1.959-0.763-3.8-2.148-5.185C118.348,57.208,116.506,56.444,114.548,56.444z"/>
	</g>
	<rect x="112.678" y="69.778" fill="#c5c9d1" width="3.728" height="95.815"/>
</g>
</svg>
