<?xml version="1.0" encoding="utf-8"?>
<!-- Generator: Adobe Illustrator 17.0.0, SVG Export Plug-In . SVG Version: 6.00 Build 0)  -->
<!DOCTYPE svg PUBLIC "-//W3C//DTD SVG 1.1//EN" "http://www.w3.org/Graphics/SVG/1.1/DTD/svg11.dtd">
<svg version="1.1" id="Layer_1" xmlns="http://www.w3.org/2000/svg" xmlns:xlink="http://www.w3.org/1999/xlink" x="0px" y="0px"
	 width="300px" height="180px" viewBox="0 0 300 180" enable-background="new 0 0 300 180" xml:space="preserve">
<g>
	<path fill="#c5c9d1" d="M109.424,105.783H48.342V44.702h61.082V105.783z M52.342,101.783h53.082V48.702H52.342V101.783z"/>
	<path fill="#c5c9d1" d="M179.782,105.783H118.7V44.702h61.082V105.783z M122.7,101.783h53.082V48.702H122.7V101.783z"/>
	<path fill="#c5c9d1" d="M250.14,105.613h-61.082V44.531h61.082V105.613z M193.058,101.613h53.082V48.531h-53.082V101.613z"/>
	<g>
		<circle fill="#c5c9d1" cx="135.138" cy="131.255" r="4.435"/>
		<circle fill="#c5c9d1" cx="149.285" cy="131.255" r="4.435"/>
		<circle fill="#c5c9d1" cx="163.432" cy="131.255" r="4.435"/>
	</g>
	<g>
		<polygon fill="#c5c9d1" points="281.654,75.199 278.825,72.371 278.825,72.371 267.512,61.058 264.683,63.887 275.996,75.2 
			264.683,86.513 267.512,89.341 278.825,78.028 278.825,78.029 281.654,75.2 281.653,75.2 		"/>
		<polygon fill="#c5c9d1" points="17.017,75.2 19.845,78.029 19.846,78.028 31.159,89.341 33.987,86.513 22.674,75.2 33.987,63.887 
			31.159,61.058 19.846,72.372 19.845,72.371 17.017,75.199 17.017,75.2 		"/>
	</g>
</g>
</svg>
