<?xml version="1.0" encoding="utf-8"?>
<!-- Generator: Adobe Illustrator 17.0.0, SVG Export Plug-In . SVG Version: 6.00 Build 0)  -->
<!DOCTYPE svg PUBLIC "-//W3C//DTD SVG 1.1//EN" "http://www.w3.org/Graphics/SVG/1.1/DTD/svg11.dtd">
<svg version="1.1" id="Layer_1" xmlns="http://www.w3.org/2000/svg" xmlns:xlink="http://www.w3.org/1999/xlink" x="0px" y="0px"
	 width="300px" height="180px" viewBox="0 0 300 180" enable-background="new 0 0 300 180" xml:space="preserve">
<g>
	<path fill="#c5c9d1" d="M109.223,137.447c-2.404,0-4.455,0.85-6.155,2.55c-1.701,1.7-2.55,3.752-2.55,6.155
		c0,2.404,0.85,4.455,2.55,6.155c1.7,1.7,3.751,2.55,6.155,2.55c2.403,0,4.455-0.851,6.155-2.55c1.7-1.701,2.55-3.751,2.55-6.155
		c0-2.403-0.85-4.455-2.55-6.155C113.678,138.296,111.626,137.447,109.223,137.447z M112.284,149.212
		c-0.862,0.861-1.882,1.292-3.06,1.292c-1.179,0-2.2-0.431-3.061-1.292c-0.862-0.861-1.292-1.882-1.292-3.061
		c0-1.178,0.431-2.198,1.292-3.06c0.861-0.861,1.881-1.293,3.061-1.293c1.178,0,2.199,0.432,3.06,1.293
		c0.861,0.862,1.292,1.882,1.292,3.06C113.576,147.331,113.145,148.351,112.284,149.212z"/>
	<path fill="#c5c9d1" d="M146.222,137.447c-2.404,0-4.455,0.85-6.155,2.55c-1.7,1.7-2.55,3.752-2.55,6.155
		c0,2.404,0.85,4.455,2.55,6.155c1.7,1.7,3.751,2.55,6.155,2.55c2.403,0,4.455-0.851,6.155-2.55c1.7-1.701,2.55-3.751,2.55-6.155
		c0-2.403-0.85-4.455-2.55-6.155C150.676,138.296,148.624,137.447,146.222,137.447z M149.282,149.212
		c-0.862,0.861-1.882,1.292-3.06,1.292c-1.179,0-2.2-0.431-3.061-1.292c-0.862-0.861-1.292-1.882-1.292-3.061
		c0-1.178,0.43-2.198,1.292-3.06c0.861-0.861,1.881-1.293,3.061-1.293c1.179,0,2.198,0.432,3.06,1.293
		c0.861,0.862,1.293,1.882,1.293,3.06C150.574,147.331,150.143,148.351,149.282,149.212z"/>
	<path fill="#c5c9d1" d="M150.031,107.425l-0.673-0.355l-2.865,21.671h-39.719l-4.285-28.292h37.304l-2.549-2.993l0.034-1.36
		h-35.401l-1.36-9.046c-0.092-0.498-0.34-0.929-0.748-1.292c-0.408-0.362-0.884-0.544-1.428-0.544h-4.923h-3.782H86.54v4.353h3.097
		h3.782h3.019l6.257,41.691c0.09,0.499,0.34,0.93,0.748,1.292c0.408,0.363,0.884,0.544,1.428,0.544h43.527
		c0.544,0,1.02-0.181,1.428-0.544c0.408-0.362,0.656-0.816,0.748-1.36l2.944-22.081L150.031,107.425z"/>
	<path fill="#c5c9d1" d="M170.756,114.012c-25.133,0-45.579-20.446-45.579-45.579s20.446-45.579,45.579-45.579
		c25.132,0,45.578,20.446,45.578,45.579S195.888,114.012,170.756,114.012z M170.756,26.855c-22.927,0-41.579,18.652-41.579,41.579
		s18.652,41.579,41.579,41.579c22.926,0,41.578-18.652,41.578-41.579S193.682,26.855,170.756,26.855z"/>
	<polygon fill="#c5c9d1" points="188.589,66.434 172.755,66.434 172.755,50.6 168.755,50.6 168.755,66.434 152.922,66.434 
		152.922,70.434 168.755,70.434 168.755,86.267 172.755,86.267 172.755,70.434 188.589,70.434 	"/>
</g>
</svg>
