<?xml version="1.0" encoding="utf-8"?>
<!-- Generator: Adobe Illustrator 17.0.0, SVG Export Plug-In . SVG Version: 6.00 Build 0)  -->
<!DOCTYPE svg PUBLIC "-//W3C//DTD SVG 1.1//EN" "http://www.w3.org/Graphics/SVG/1.1/DTD/svg11.dtd">
<svg version="1.1" id="Layer_1" xmlns="http://www.w3.org/2000/svg" xmlns:xlink="http://www.w3.org/1999/xlink" x="0px" y="0px"
	 width="300px" height="180px" viewBox="0 0 300 180" enable-background="new 0 0 300 180" xml:space="preserve">
<g>
	<path fill="#c5c9d1" d="M174.947,145.893h-48.553V120.86l24.276-14.055l24.277,14.055V145.893z M130.394,141.893h40.553v-18.956
		l-20.277-11.245l-20.276,11.245V141.893z"/>
	<path fill="#c5c9d1" d="M192.712,157.821v-45.669l-34.524-21.331l34.524-21.331V23.821h4.167v-3.976h-4.167h-84h-4.167v3.976h4.167
		V69.49l34.524,21.331l-34.524,21.331v45.669h-4v3.976h4h84h4.333v-3.976H192.712z M112.712,67.259V23.845h76v43.414l-38,23.479
		L112.712,67.259z M112.712,114.383l38-23.479l38,23.479v43.414h-76V114.383z"/>
</g>
</svg>
