<?xml version="1.0" encoding="utf-8"?>
<!-- Generator: Adobe Illustrator 17.0.0, SVG Export Plug-In . SVG Version: 6.00 Build 0)  -->
<!DOCTYPE svg PUBLIC "-//W3C//DTD SVG 1.1//EN" "http://www.w3.org/Graphics/SVG/1.1/DTD/svg11.dtd">
<svg version="1.1" id="Layer_1" xmlns="http://www.w3.org/2000/svg" xmlns:xlink="http://www.w3.org/1999/xlink" x="0px" y="0px"
	 width="300px" height="180px" viewBox="0 0 300 180" enable-background="new 0 0 300 180" xml:space="preserve">
<g>
	<path fill="#c5c9d1" d="M151.437,162.435c-39.88,0-72.324-32.444-72.324-72.324c0-39.88,32.444-72.324,72.324-72.324
		s72.324,32.444,72.324,72.324C223.761,129.991,191.317,162.435,151.437,162.435z M151.437,21.787
		c-37.674,0-68.324,30.65-68.324,68.324c0,37.674,30.65,68.324,68.324,68.324c37.674,0,68.324-30.65,68.324-68.324
		C219.761,52.437,189.111,21.787,151.437,21.787z"/>
	<g>
		<path fill="#c5c9d1" d="M111.352,91.595c0-6.052,1.176-10.577,3.528-13.576c2.352-2.998,5.832-4.497,10.437-4.497
			c1.587,0,2.836,0.134,3.749,0.4v3.012c-1.082-0.351-2.317-0.527-3.707-0.527c-3.3,0-5.821,1.029-7.562,3.086
			c-1.741,2.057-2.696,5.291-2.865,9.7h0.253c1.545-2.415,3.988-3.623,7.33-3.623c2.767,0,4.947,0.836,6.54,2.507
			c1.593,1.671,2.391,3.939,2.391,6.804c0,3.202-0.874,5.719-2.622,7.551c-1.748,1.833-4.111,2.749-7.088,2.749
			c-3.188,0-5.716-1.197-7.583-3.591C112.286,99.196,111.352,95.864,111.352,91.595z M121.695,102.211
			c1.994,0,3.542-0.628,4.645-1.885c1.103-1.256,1.654-3.072,1.654-5.445c0-2.036-0.513-3.637-1.538-4.803
			c-1.025-1.165-2.556-1.748-4.592-1.748c-1.264,0-2.422,0.26-3.476,0.779c-1.053,0.52-1.893,1.236-2.517,2.149
			c-0.625,0.913-0.937,1.861-0.937,2.844c0,1.447,0.281,2.795,0.843,4.044c0.561,1.25,1.359,2.24,2.391,2.97
			C119.199,101.846,120.375,102.211,121.695,102.211z"/>
		<path fill="#c5c9d1" d="M155.902,104.76H135.66v-3.012l8.11-8.152c2.472-2.499,4.1-4.283,4.887-5.35
			c0.787-1.067,1.377-2.106,1.769-3.117c0.393-1.011,0.59-2.099,0.59-3.265c0-1.643-0.498-2.945-1.496-3.907
			c-0.997-0.962-2.38-1.443-4.15-1.443c-1.278,0-2.489,0.211-3.634,0.632c-1.145,0.421-2.419,1.187-3.823,2.296l-1.854-2.38
			c2.836-2.359,5.926-3.539,9.268-3.539c2.893,0,5.161,0.741,6.804,2.222c1.643,1.482,2.464,3.472,2.464,5.972
			c0,1.952-0.548,3.883-1.643,5.793c-1.095,1.91-3.146,4.325-6.151,7.246l-6.74,6.593v0.169h15.84V104.76z"/>
		<path fill="#c5c9d1" d="M172.964,83.149c0,3.202-0.537,5.621-1.611,7.257c-1.074,1.636-2.651,2.454-4.729,2.454
			c-1.966,0-3.493-0.835-4.581-2.507c-1.088-1.671-1.632-4.072-1.632-7.204c0-3.188,0.523-5.589,1.569-7.204
			c1.046-1.615,2.594-2.422,4.645-2.422c2.036,0,3.602,0.836,4.697,2.507C172.417,77.7,172.964,80.073,172.964,83.149z
			 M163.317,83.149c0,2.388,0.26,4.178,0.779,5.371c0.519,1.194,1.362,1.79,2.528,1.79c2.303,0,3.454-2.387,3.454-7.162
			c0-4.746-1.151-7.12-3.454-7.12c-1.166,0-2.008,0.59-2.528,1.769S163.317,80.761,163.317,83.149z M186.087,73.965l-17.083,30.795
			h-3.096l17.083-30.795H186.087z M191.521,95.492c0,3.188-0.537,5.6-1.611,7.235c-1.074,1.636-2.651,2.454-4.729,2.454
			c-1.994,0-3.528-0.835-4.602-2.507c-1.074-1.671-1.611-4.065-1.611-7.183c0-3.187,0.523-5.589,1.569-7.204
			c1.046-1.615,2.594-2.422,4.645-2.422c1.994,0,3.549,0.825,4.666,2.475C190.963,89.991,191.521,92.375,191.521,95.492z
			 M181.853,95.492c0,2.401,0.26,4.195,0.779,5.382c0.519,1.187,1.369,1.78,2.549,1.78s2.051-0.586,2.612-1.759
			c0.561-1.172,0.843-2.973,0.843-5.403c0-2.401-0.281-4.181-0.843-5.34s-1.432-1.738-2.612-1.738s-2.03,0.579-2.549,1.738
			S181.853,93.091,181.853,95.492z"/>
	</g>
	<path fill="#c5c9d1" d="M151.437,27.164v4c32.504,0,58.947,26.444,58.947,58.947s-26.443,58.947-58.947,58.947
		c-17.08,0-32.479-7.309-43.255-18.955l-2.935,2.714c11.507,12.437,27.951,20.241,46.191,20.241
		c34.709,0,62.947-28.238,62.947-62.947S186.146,27.164,151.437,27.164z"/>
</g>
</svg>
