<?xml version="1.0" encoding="iso-8859-1"?>
<!-- Generator: Adobe Illustrator 19.0.0, SVG Export Plug-In . SVG Version: 6.00 Build 0)  -->
<svg version="1.1" id="Layer_1" xmlns="http://www.w3.org/2000/svg" xmlns:xlink="http://www.w3.org/1999/xlink" x="0px" y="0px"
	 viewBox="0 0 512.001 512.001" style="enable-background:new 0 0 512.001 512.001;" xml:space="preserve">
<g>
	<path style="fill:#c5c9d1;" d="M432.464,512.001h-37.767c-8.02,0-14.523-6.502-14.523-14.523s6.503-14.523,14.523-14.523h37.767
		c27.839,0,50.49-22.65,50.49-50.49V79.537c0-27.839-22.65-50.49-50.49-50.49H214.367c-8.02,0-14.523-6.502-14.523-14.523
		s6.503-14.523,14.523-14.523h218.098c43.855,0,79.536,35.679,79.536,79.536v352.928C512,476.322,476.321,512.001,432.464,512.001z"
		/>
	<path style="fill:#c5c9d1;" d="M289.694,512.001H79.536C35.679,512.001,0,476.322,0,432.465V79.537
		C0,35.68,35.679,0.001,79.536,0.001h32.684c8.02,0,14.523,6.502,14.523,14.523s-6.503,14.523-14.523,14.523H79.536
		c-27.839,0-50.49,22.65-50.49,50.49v352.928c0,27.839,22.65,50.49,50.49,50.49h210.158c8.02,0,14.523,6.502,14.523,14.523
		C304.218,505.499,297.714,512.001,289.694,512.001z"/>
</g>
<circle style="fill:#c5c9d1;" cx="152.856" cy="256" r="79.195"/>
<path style="fill:#c5c9d1;" d="M152.862,349.722c-51.679,0-93.722-42.043-93.722-93.722s42.043-93.722,93.722-93.722
	c51.678,0,93.721,42.043,93.721,93.722S204.539,349.722,152.862,349.722z M152.862,191.326c-35.663,0-64.676,29.013-64.676,64.676
	s29.014,64.676,64.676,64.676s64.674-29.013,64.674-64.676S188.523,191.326,152.862,191.326z"/>
<circle style="fill:#c5c9d1;" cx="359.143" cy="256" r="79.195"/>
<path style="fill:#c5c9d1;" d="M359.138,349.722c-51.678,0-93.721-42.043-93.721-93.722s42.043-93.722,93.721-93.722
	c51.679,0,93.722,42.043,93.722,93.722S410.817,349.722,359.138,349.722z M359.138,191.326c-35.662,0-64.674,29.013-64.674,64.676
	s29.014,64.676,64.674,64.676c35.663,0,64.676-29.013,64.676-64.676S394.801,191.326,359.138,191.326z"/>
<g>
</g>
<g>
</g>
<g>
</g>
<g>
</g>
<g>
</g>
<g>
</g>
<g>
</g>
<g>
</g>
<g>
</g>
<g>
</g>
<g>
</g>
<g>
</g>
<g>
</g>
<g>
</g>
<g>
</g>
</svg>
