<?xml version="1.0" encoding="utf-8"?>
<!-- Generator: Adobe Illustrator 17.0.0, SVG Export Plug-In . SVG Version: 6.00 Build 0)  -->
<!DOCTYPE svg PUBLIC "-//W3C//DTD SVG 1.1//EN" "http://www.w3.org/Graphics/SVG/1.1/DTD/svg11.dtd">
<svg version="1.1" id="Layer_1" xmlns="http://www.w3.org/2000/svg" xmlns:xlink="http://www.w3.org/1999/xlink" x="0px" y="0px"
	 width="300px" height="180px" viewBox="0 0 300 180" enable-background="new 0 0 300 180" xml:space="preserve">
<g>
	<path fill="#c5c9d1" d="M219.992,159.513H78.678V18.199h141.314V159.513z M82.678,155.513h133.314V22.199H82.678V155.513z"/>
	<g>
		<g>
			<rect x="126.003" y="98.351" fill="#c5c9d1" width="60.833" height="4"/>
			<rect x="126.003" y="109.518" fill="#c5c9d1" width="46.568" height="4"/>
			<rect x="126.003" y="64.851" fill="#c5c9d1" width="60.833" height="4"/>
			<rect x="126.003" y="76.018" fill="#c5c9d1" width="60.833" height="4"/>
			<polygon fill="#c5c9d1" points="172.57,87.184 126.003,87.184 126.003,87.185 126.003,91.184 126.003,91.185 186.836,91.185 
				186.836,87.185 172.57,87.185 			"/>
		</g>
		<g>
			<circle fill="#c5c9d1" cx="116.27" cy="66.194" r="4.435"/>
			<circle fill="#c5c9d1" cx="116.27" cy="77.525" r="4.435"/>
			<circle fill="#c5c9d1" cx="116.27" cy="88.856" r="4.435"/>
			<circle fill="#c5c9d1" cx="116.27" cy="100.187" r="4.435"/>
			<circle fill="#c5c9d1" cx="116.27" cy="111.518" r="4.435"/>
		</g>
	</g>
</g>
</svg>
