<?xml version="1.0" encoding="utf-8"?>
<!-- Generator: Adobe Illustrator 17.0.0, SVG Export Plug-In . SVG Version: 6.00 Build 0)  -->
<!DOCTYPE svg PUBLIC "-//W3C//DTD SVG 1.1//EN" "http://www.w3.org/Graphics/SVG/1.1/DTD/svg11.dtd">
<svg version="1.1" id="Layer_1" xmlns="http://www.w3.org/2000/svg" xmlns:xlink="http://www.w3.org/1999/xlink" x="0px" y="0px"
	 width="300px" height="180px" viewBox="0 0 300 180" enable-background="new 0 0 300 180" xml:space="preserve">
<path fill="#c5c9d1" d="M110.183,80.605H49.101v-54.22h61.082V80.605z M53.101,76.605h53.082v-46.22H53.101V76.605z"/>
<path fill="#c5c9d1" d="M110.183,157.615H49.101v-68.22h61.082V157.615z M53.101,153.615h53.082v-60.22H53.101V153.615z"/>
<path fill="#c5c9d1" d="M180.542,97.605h-61.083V26.523h61.083V97.605z M123.459,93.605h53.083V30.523h-53.083V93.605z"/>
<path fill="#c5c9d1" d="M180.542,157.445h-61.083v-51.082h61.083V157.445z M123.459,153.445h53.083v-43.082h-53.083V153.445z"/>
<path fill="#c5c9d1" d="M250.899,58.435h-61.082V26.718h61.082V58.435z M193.817,54.435h53.082V30.718h-53.082V54.435z"/>
<path fill="#c5c9d1" d="M250.899,157.033h-61.082V67.316h61.082V157.033z M193.817,153.033h53.082V71.316h-53.082V153.033z"/>
</svg>
