<?xml version="1.0" encoding="utf-8"?>
<!-- Generator: Adobe Illustrator 17.0.0, SVG Export Plug-In . SVG Version: 6.00 Build 0)  -->
<!DOCTYPE svg PUBLIC "-//W3C//DTD SVG 1.1//EN" "http://www.w3.org/Graphics/SVG/1.1/DTD/svg11.dtd">
<svg version="1.1" id="Layer_1" xmlns="http://www.w3.org/2000/svg" xmlns:xlink="http://www.w3.org/1999/xlink" x="0px" y="0px"
	 width="300px" height="180px" viewBox="0 0 300 180" enable-background="new 0 0 300 180" xml:space="preserve">
<g>
	<path fill="#c5c9d1" d="M219.97,23.427l0.044-0.035l-0.044-0.011v-3.322H78.656v141.314h2.311l0.01,0.21l0.232-0.21h135.657
		l0.168,0.21v-0.21h2.936V23.427z M213.142,24.059l-45.488,45.488l1.66,3.995l46.656-46.655v127.378l-54.195-54.195l-2.903,2.752
		l54.55,54.552H85.481l54.193-54.191l-2.972-2.683l-54.046,54.046V24.059H213.142z"/>
	<g>
		<path fill="#c5c9d1" d="M157.688,21.091c0,12.687-2.911,24.706-8.098,35.427l3.848,1.205c5.282-11.113,8.249-23.531,8.249-36.632
			c0-0.154-0.011-0.305-0.012-0.458c-1.28-0.001-2.62,0.002-4,0.008C157.677,20.792,157.688,20.94,157.688,21.091z"/>
		<path fill="#c5c9d1" d="M126.749,85.001c-13.033,10.358-29.282,16.828-46.993,17.621l-0.664,4.017
			c18.803-0.658,36.074-7.404,49.915-18.329L126.749,85.001z"/>
	</g>
	<path fill="#c5c9d1" d="M148.938,114.908l-17.229-17.23c-0.115-0.112-0.246-0.243-0.375-0.375l-1.64-1.633l0.105-0.09
		c-3.552-4.376-5.486-9.801-5.486-15.488c0-13.578,11.047-24.625,24.625-24.625s24.625,11.047,24.625,24.625
		c0,5.688-1.935,11.112-5.486,15.488l0.102,0.087l-1.656,1.656c-0.109,0.112-0.24,0.243-0.373,0.373L148.938,114.908z
		 M134.257,94.57c0.093,0.095,0.178,0.179,0.263,0.262l14.418,14.418l14.401-14.401c0.115-0.113,0.215-0.212,0.313-0.312
		l0.143-0.149c3.72-3.864,5.769-8.942,5.769-14.297c0-11.373-9.252-20.625-20.625-20.625s-20.625,9.252-20.625,20.625
		c0,5.355,2.049,10.433,5.769,14.297L134.257,94.57z M148.938,89.549c-5.215,0-9.458-4.243-9.458-9.458s4.243-9.458,9.458-9.458
		s9.458,4.243,9.458,9.458S154.153,89.549,148.938,89.549z M148.938,74.632c-3.01,0-5.458,2.449-5.458,5.458
		s2.449,5.458,5.458,5.458s5.458-2.449,5.458-5.458S151.948,74.632,148.938,74.632z"/>
</g>
</svg>
