<?xml version="1.0" encoding="utf-8"?>
<!-- Generator: Adobe Illustrator 17.0.0, SVG Export Plug-In . SVG Version: 6.00 Build 0)  -->
<!DOCTYPE svg PUBLIC "-//W3C//DTD SVG 1.1//EN" "http://www.w3.org/Graphics/SVG/1.1/DTD/svg11.dtd">
<svg version="1.1" id="Layer_1" xmlns="http://www.w3.org/2000/svg" xmlns:xlink="http://www.w3.org/1999/xlink" x="0px" y="0px"
	 width="300px" height="180px" viewBox="0 0 300 180" enable-background="new 0 0 300 180" xml:space="preserve">
<path fill="#c5c9d1" d="M49.353,86.585h61.082V25.503H49.353V86.585z M53.353,29.503h53.082v53.082H53.353V29.503z"/>
<path fill="#c5c9d1" d="M119.71,86.585h61.082V25.503H119.71V86.585z M123.71,29.503h53.082v53.082H123.71V29.503z"/>
<path fill="#c5c9d1" d="M190.068,25.333v61.082h61.082V25.333H190.068z M247.15,82.415h-53.082V29.333h53.082V82.415z"/>
<path fill="#c5c9d1" d="M49.353,156.667h61.082V95.585H49.353V156.667z M53.353,99.585h53.082v53.082H53.353V99.585z"/>
<path fill="#c5c9d1" d="M119.71,156.667h61.082V95.585H119.71V156.667z M123.71,99.585h53.082v53.082H123.71V99.585z"/>
<path fill="#c5c9d1" d="M190.068,95.415v61.082h61.082V95.415H190.068z M247.15,152.497h-53.082V99.415h53.082V152.497z"/>
</svg>
