<?xml version="1.0" encoding="utf-8"?>
<!-- Generator: Adobe Illustrator 17.0.0, SVG Export Plug-In . SVG Version: 6.00 Build 0)  -->
<!DOCTYPE svg PUBLIC "-//W3C//DTD SVG 1.1//EN" "http://www.w3.org/Graphics/SVG/1.1/DTD/svg11.dtd">
<svg version="1.1" id="Layer_1" xmlns="http://www.w3.org/2000/svg" xmlns:xlink="http://www.w3.org/1999/xlink" x="0px" y="0px"
	 width="300px" height="180px" viewBox="0 0 300 180" enable-background="new 0 0 300 180" xml:space="preserve">
<g>
	<path fill="#c5c9d1" d="M120.342,95.151h-2.145c-1.557,0-2.976-0.468-4.219-1.391c-1.277-0.947-2.162-2.413-2.629-4.354
		c-0.614-2.58-2.105-4.319-4.558-5.321c-2.486-1.014-4.749-0.851-7.025,0.515c-1.667,1.001-3.33,1.404-4.899,1.187
		c-1.563-0.213-2.902-0.868-3.98-1.947l-1.532-1.532c-1.077-1.076-1.732-2.4-1.946-3.935c-0.215-1.544,0.178-3.197,1.167-4.914
		c1.373-2.287,1.541-4.586,0.533-7.057c-1.002-2.452-2.741-3.943-5.316-4.557c-1.948-0.469-3.414-1.354-4.361-2.631
		c-0.921-1.239-1.389-2.659-1.389-4.218V52.85c0-1.558,0.468-2.977,1.391-4.219c0.946-1.275,2.412-2.16,4.354-2.629
		c2.581-0.614,4.319-2.105,5.321-4.559c1.008-2.47,0.84-4.768-0.515-7.025c-1.007-1.744-1.4-3.398-1.186-4.944
		c0.214-1.535,0.869-2.858,1.947-3.936l1.532-1.531c1.077-1.077,2.4-1.732,3.934-1.946c1.525-0.213,3.197,0.177,4.916,1.168
		c2.329,1.398,4.569,1.55,7.055,0.532c2.453-1.001,3.943-2.74,4.557-5.315c0.469-1.947,1.354-3.413,2.631-4.36
		c1.24-0.923,2.66-1.391,4.218-1.391h2.145c1.557,0,2.977,0.468,4.219,1.391c1.276,0.948,2.16,2.413,2.629,4.354
		c0.615,2.582,2.105,4.321,4.559,5.322c2.488,1.017,4.75,0.851,7.025-0.515c1.751-1.012,3.414-1.396,4.945-1.186
		c1.534,0.214,2.858,0.869,3.935,1.947l1.531,1.531c1.077,1.075,1.732,2.399,1.946,3.934c0.216,1.546-0.178,3.2-1.169,4.916
		c-1.371,2.287-1.54,4.586-0.531,7.056c1.001,2.452,2.74,3.942,5.316,4.557c1.946,0.47,3.411,1.354,4.359,2.629
		c0.923,1.244,1.391,2.663,1.391,4.22v2.146c0,1.558-0.468,2.978-1.391,4.22c-0.948,1.276-2.413,2.161-4.355,2.628
		c-2.58,0.615-4.319,2.105-5.32,4.558c-1.009,2.471-0.841,4.769,0.515,7.026c1.009,1.748,1.401,3.401,1.186,4.944
		c-0.214,1.534-0.869,2.858-1.947,3.936l-1.531,1.531c-1.075,1.077-2.399,1.732-3.934,1.946c-1.54,0.214-3.202-0.179-4.916-1.169
		c-2.328-1.395-4.567-1.544-7.056-0.531c-2.452,1.002-3.943,2.741-4.556,5.315c-0.471,1.947-1.355,3.412-2.63,4.359
		C123.317,94.683,121.897,95.151,120.342,95.151z M103.699,79.433c1.514,0,3.063,0.319,4.604,0.948
		c3.682,1.504,6.016,4.227,6.936,8.093c0.241,1.001,0.62,1.7,1.124,2.075c0.546,0.404,1.146,0.602,1.834,0.602h2.145
		c0.688,0,1.288-0.197,1.835-0.603c0.502-0.374,0.881-1.074,1.125-2.081c0.918-3.859,3.252-6.582,6.934-8.086
		c3.636-1.482,7.263-1.213,10.597,0.788c0.888,0.513,1.674,0.754,2.336,0.653c0.669-0.093,1.195-0.352,1.655-0.812l1.533-1.533
		c0.461-0.461,0.72-0.988,0.813-1.659c0.089-0.641-0.137-1.436-0.672-2.363c-2.003-3.336-2.268-6.901-0.771-10.566
		c1.503-3.681,4.226-6.015,8.092-6.936c1.002-0.241,1.701-0.619,2.076-1.124c0.41-0.553,0.602-1.135,0.602-1.834V52.85
		c0-0.698-0.191-1.281-0.602-1.834c-0.374-0.504-1.075-0.882-2.081-1.125c-3.861-0.92-6.584-3.254-8.087-6.935
		c-1.497-3.665-1.231-7.229,0.788-10.597c0.518-0.896,0.743-1.691,0.654-2.334c-0.094-0.671-0.353-1.197-0.813-1.657l-1.533-1.533
		c-0.461-0.461-0.987-0.72-1.658-0.813c-0.654-0.087-1.439,0.139-2.363,0.671c-3.284,1.972-6.933,2.255-10.567,0.771
		c-3.681-1.503-6.015-4.226-6.936-8.093c-0.242-1-0.621-1.7-1.125-2.076c-0.552-0.409-1.135-0.601-1.833-0.601h-2.145
		c-0.699,0-1.282,0.191-1.833,0.601c-0.505,0.376-0.884,1.075-1.126,2.082c-0.919,3.861-3.253,6.584-6.935,8.087
		c-3.634,1.483-7.264,1.212-10.596-0.788c-0.89-0.513-1.674-0.745-2.334-0.654c-0.67,0.094-1.197,0.353-1.658,0.813l-1.533,1.532
		c-0.461,0.461-0.719,0.987-0.813,1.658c-0.089,0.643,0.136,1.438,0.67,2.363c2.002,3.336,2.267,6.901,0.771,10.567
		c-1.504,3.682-4.227,6.015-8.092,6.936c-1.001,0.242-1.702,0.62-2.075,1.123c-0.411,0.554-0.602,1.137-0.602,1.835v2.146
		c0,0.699,0.191,1.281,0.601,1.833c0.375,0.506,1.074,0.884,2.081,1.126c3.861,0.92,6.584,3.253,8.088,6.934
		c1.497,3.668,1.231,7.232-0.788,10.598c-0.517,0.897-0.743,1.692-0.653,2.334c0.093,0.67,0.352,1.197,0.812,1.657l1.533,1.533
		c0.459,0.46,0.997,0.718,1.691,0.813c0.657,0.086,1.43-0.13,2.301-0.653C99.626,80.017,101.642,79.433,103.699,79.433z
		 M119.27,70.633c-4.618,0-8.599-1.641-11.834-4.876c-3.236-3.235-4.876-7.217-4.876-11.835c0-4.616,1.641-8.598,4.876-11.834
		c3.237-3.235,7.219-4.876,11.835-4.876c4.615,0,8.596,1.641,11.833,4.875c3.236,3.238,4.876,7.22,4.876,11.835
		c0,4.617-1.641,8.599-4.875,11.835C127.868,68.993,123.886,70.633,119.27,70.633z M119.27,41.213c-3.567,0-6.513,1.212-9.006,3.704
		c-2.493,2.493-3.705,5.439-3.705,9.006c0,3.568,1.212,6.515,3.705,9.007c2.493,2.492,5.438,3.704,9.006,3.704
		c3.566,0,6.512-1.212,9.006-3.704c2.492-2.493,3.704-5.439,3.704-9.007c0-3.565-1.212-6.512-3.705-9.006
		C125.782,42.424,122.835,41.213,119.27,41.213z"/>
	<path fill="#c5c9d1" d="M145.469,152.291c-3.339,0-6.256-1.259-8.667-3.742l-15.051-15.452c-2.551-2.55-3.691-5.701-3.369-9.349
		c0.315-3.604,1.923-6.557,4.778-8.778l41.046-30.59c-0.299-1.042-0.547-2.094-0.741-3.142c-0.288-1.544-0.435-3.171-0.435-4.83
		c0-4.267,0.814-8.33,2.419-12.077c1.599-3.73,3.818-7.03,6.597-9.809c2.774-2.776,6.074-4.995,9.808-6.596
		c3.748-1.605,7.811-2.42,12.077-2.42c2.139,0,4.224,0.218,6.196,0.648c1.923,0.42,3.827,0.989,5.66,1.692l2.865,1.1L192.24,65.465
		l12.635,12.635l16.518-16.412l1.1,2.865c0.705,1.837,1.274,3.74,1.693,5.658c0.43,1.971,0.647,4.056,0.647,6.197
		c0,4.268-0.814,8.33-2.42,12.077c-1.598,3.729-3.816,7.03-6.596,9.809c-2.777,2.777-6.077,4.996-9.808,6.595
		c-3.745,1.605-7.809,2.42-12.078,2.42c-1.729,0-3.431-0.165-5.058-0.49c-1.088-0.217-2.161-0.479-3.207-0.782l-30.364,41.3
		c-2.233,3.029-5.247,4.687-8.958,4.927C146.049,152.281,145.757,152.291,145.469,152.291z M193.931,49.506
		c-3.722,0-7.255,0.705-10.501,2.097c-3.263,1.398-6.142,3.332-8.556,5.747c-2.417,2.417-4.351,5.296-5.748,8.556
		c-1.391,3.246-2.096,6.779-2.096,10.502c0,1.414,0.124,2.793,0.367,4.099c0.248,1.339,0.596,2.684,1.035,3.999l0.457,1.372
		l-43.307,32.274c-1.937,1.507-2.999,3.46-3.217,5.945c-0.216,2.449,0.514,4.473,2.231,6.188l15.071,15.474
		c1.805,1.858,3.904,2.674,6.417,2.511c2.514-0.162,4.475-1.244,5.995-3.306l32.069-43.62l1.382,0.461
		c1.32,0.44,2.708,0.808,4.124,1.091c1.37,0.273,2.809,0.412,4.274,0.412c3.725,0,7.258-0.705,10.502-2.096
		c3.262-1.397,6.14-3.331,8.556-5.747c2.417-2.417,4.351-5.296,5.747-8.556c1.392-3.246,2.097-6.779,2.097-10.502
		c0-1.855-0.187-3.653-0.556-5.345c-0.153-0.704-0.33-1.407-0.528-2.104l-14.884,14.788l-18.273-18.273l14.789-14.883
		c-0.697-0.198-1.399-0.374-2.105-0.528C197.581,49.694,195.784,49.506,193.931,49.506z"/>
</g>
</svg>
