<?xml version="1.0" encoding="UTF-8"?>
<svg width="139px" height="134px" viewBox="0 0 139 134" version="1.1" xmlns="http://www.w3.org/2000/svg" xmlns:xlink="http://www.w3.org/1999/xlink">
    <!-- Generator: Sketch 44.1 (41455) - http://www.bohemiancoding.com/sketch -->
    <title>Icon3</title>
    <desc>Created with Sketch.</desc>
    <defs>
        <path d="M61.2233513,90.9632298 C61.2233513,87.8887454 62.7184072,85.1192565 66.0858241,85.1192565 C69.4532409,85.1192565 71.1283371,87.8455766 71.1283371,90.9632298 C71.1283371,94.0808831 71.1283371,97.7081543 71.1283371,100.942638 C71.1283371,104.177122 89.1564791,103.444326 89.1564791,112.742973 C89.1564791,122.041619 83.2800675,133.849996 80.3444215,133.849996 C77.4087755,133.849996 65.7801513,133.849996 61.2233513,133.849996 C56.6665513,133.849996 53.3733968,120.223709 49.7866381,113.860017 C46.1998794,107.496324 54.362827,102.984923 57.7930892,108.591253 C61.2233513,114.197583 61.2233513,110.912195 61.2233513,108.907708 C61.2233513,106.903221 61.2233513,94.0377143 61.2233513,90.9632298 Z" id="path-1"></path>
    </defs>
    <g id="Page-1" stroke="none" stroke-width="1" fill="none" fill-rule="evenodd">
        <g id="Novi_Main" transform="translate(-1041.000000, -1637.000000)">
            <g id="Create-with-Novi" transform="translate(0.000000, 1391.000000)">
                <g id="Icon3" transform="translate(1041.000000, 246.000000)">
                    <rect id="Rectangle-6-Copy" stroke="#c5c9d1" x="17.1035187" y="1.1607337" width="103.749513" height="122.23205" rx="4"></rect>
                    <rect id="Rectangle-6-Copy-42" stroke="#c5c9d1" x="26.5546026" y="26.0479319" width="83.7336432" height="33.8609717" rx="2"></rect>
                    <path d="M27.3406261,26.7865068 L109.08367,59.0329057" id="Line-Copy-5" stroke="#c5c9d1" stroke-linecap="square"></path>
                    <path d="M110,27 L26.8421929,59.3999564 L110,27 Z" id="Line-Copy-4" stroke="#c5c9d1" stroke-linecap="square"></path>
                    <path d="M32.6254315,12.4024805 L32.6254315,10.7021835 C32.625436,10.3693641 32.3654178,10.099065 32.0435558,10.097301 L30.396114,10.097301 C30.2329385,10.0971032 30.0857453,10.1986535 30.0232748,10.3545272 C29.9608043,10.5104008 29.9953823,10.6898432 30.1108606,10.8090532 L31.9402031,12.6963722 C32.0556321,12.8133786 32.2274953,12.8477653 32.3768029,12.7837278 C32.5261105,12.7196904 32.6239807,12.5696161 32.6254315,12.4024805 L32.6254315,12.4024805 Z" id="Shape-Copy-5" fill="#c5c9d1" fill-rule="nonzero"></path>
                    <path d="M27.8901891,10.0973007 L27.4271691,10.0973007 C27.1040957,10.0973007 26.8421929,10.3681158 26.8421929,10.7021832 L26.8421929,15.5519304 C26.8421929,15.8859978 27.1040957,16.1568129 27.4271691,16.1568129 L32.1214481,16.1568129 C32.4445215,16.1568129 32.7064243,15.8859978 32.7064243,15.5519304 L32.7064243,15.0731541 C32.706387,14.9348521 32.6532246,14.8022286 32.55863,14.7044536 L28.2467559,10.2533304 C28.1527086,10.15434 28.0243864,10.0981876 27.8901891,10.0973007 Z" id="Shape-Copy-4" fill="#c5c9d1" fill-rule="nonzero"></path>
                    <rect id="Rectangle-3" fill="#c5c9d1" x="78.0355639" y="12.5057392" width="7.87590322" height="1" rx="0.5"></rect>
                    <rect id="Rectangle-3-Copy" fill="#c5c9d1" x="89.8494187" y="12.5057392" width="7.87590322" height="1" rx="0.5"></rect>
                    <rect id="Rectangle-3-Copy-2" fill="#c5c9d1" x="101.663274" y="12.5057392" width="7.87590322" height="1" rx="0.5"></rect>
                    <rect id="Rectangle-6-Copy-2" fill="#c5c9d1" x="0" y="68.990884" width="138.744141" height="44.9575192" rx="4"></rect>
                    <path d="M32.4389648,87.9013672 C31.3406521,87.9013672 30.473636,88.2670862 29.8378906,88.9985352 C29.2021453,89.7299841 28.8842773,90.731439 28.8842773,92.0029297 C28.8842773,93.3108789 29.1907521,94.3214483 29.8037109,95.034668 C30.4166697,95.7478877 31.2905217,96.1044922 32.425293,96.1044922 C33.1225621,96.1044922 33.9178015,95.9791679 34.8110352,95.7285156 L34.8110352,96.7470703 C34.1183234,97.0068372 33.2638397,97.1367188 32.2475586,97.1367188 C30.775546,97.1367188 29.6396524,96.6901086 28.8398438,95.796875 C28.0400351,94.9036414 27.6401367,93.6344483 27.6401367,91.9892578 C27.6401367,90.9593047 27.8326804,90.05697 28.2177734,89.2822266 C28.6028665,88.5074831 29.1588505,87.9104839 29.8857422,87.4912109 C30.6126338,87.071938 31.4682568,86.8623047 32.4526367,86.8623047 C33.500819,86.8623047 34.4168255,87.053709 35.2006836,87.4365234 L34.7084961,88.4345703 C33.9519819,88.0790998 33.195479,87.9013672 32.4389648,87.9013672 Z M41.4282227,97 L41.2026367,95.9335938 L41.1479492,95.9335938 C40.7742494,96.4029971 40.4016946,96.7208651 40.0302734,96.887207 C39.6588523,97.053549 39.1951525,97.1367188 38.6391602,97.1367188 C37.8963179,97.1367188 37.3141297,96.9453144 36.8925781,96.5625 C36.4710265,96.1796856 36.2602539,95.6350947 36.2602539,94.9287109 C36.2602539,93.4156825 37.4702027,92.6227217 39.8901367,92.5498047 L41.1616211,92.5087891 L41.1616211,92.0439453 C41.1616211,91.4560517 41.0351575,91.0219741 40.7822266,90.7416992 C40.5292956,90.4614244 40.12484,90.3212891 39.5688477,90.3212891 C38.9444956,90.3212891 38.2381224,90.5126934 37.449707,90.8955078 L37.1010742,90.0273438 C37.4702167,89.8268219 37.8746723,89.6695969 38.3144531,89.5556641 C38.754234,89.4417312 39.1951475,89.3847656 39.637207,89.3847656 C40.5304407,89.3847656 41.1923807,89.5830058 41.6230469,89.9794922 C42.0537131,90.3759785 42.269043,91.0117144 42.269043,91.8867188 L42.269043,97 L41.4282227,97 Z M38.8647461,96.2001953 C39.5711298,96.2001953 40.1259745,96.0065124 40.5292969,95.6191406 C40.9326192,95.2317689 41.1342773,94.6894566 41.1342773,93.9921875 L41.1342773,93.3154297 L39.9995117,93.3632812 C39.0971635,93.3951825 38.4466166,93.5353178 38.0478516,93.7836914 C37.6490865,94.032065 37.449707,94.4182917 37.449707,94.9423828 C37.449707,95.3525411 37.573892,95.6647125 37.8222656,95.8789062 C38.0706393,96.0931 38.4181293,96.2001953 38.8647461,96.2001953 Z M45.7416992,97 L44.6069336,97 L44.6069336,86.3632812 L45.7416992,86.3632812 L45.7416992,97 Z M49.2827148,97 L48.1479492,97 L48.1479492,86.3632812 L49.2827148,86.3632812 L49.2827148,97 Z M57.7456055,96.2001953 C57.9461273,96.2001953 58.1398103,96.1853843 58.3266602,96.1557617 C58.51351,96.1261392 58.6616205,96.0953778 58.7709961,96.0634766 L58.7709961,96.9316406 C58.6479486,96.9908857 58.4667981,97.0398761 58.2275391,97.0786133 C57.9882801,97.1173505 57.7729502,97.1367188 57.581543,97.1367188 C56.132317,97.1367188 55.4077148,96.37338 55.4077148,94.8466797 L55.4077148,90.3896484 L54.3344727,90.3896484 L54.3344727,89.8427734 L55.4077148,89.3710938 L55.8862305,87.7714844 L56.5424805,87.7714844 L56.5424805,89.5078125 L58.7163086,89.5078125 L58.7163086,90.3896484 L56.5424805,90.3896484 L56.5424805,94.7988281 C56.5424805,95.2500023 56.6495758,95.596353 56.8637695,95.8378906 C57.0779633,96.0794283 57.3719057,96.2001953 57.7456055,96.2001953 Z M66.7348633,93.2470703 C66.7348633,94.4684306 66.4272492,95.4220343 65.8120117,96.1079102 C65.1967743,96.793786 64.3468479,97.1367188 63.262207,97.1367188 C62.5922818,97.1367188 61.9975612,96.9794938 61.4780273,96.6650391 C60.9584935,96.3505844 60.5574558,95.899417 60.2749023,95.3115234 C59.9923488,94.7236299 59.8510742,94.0354857 59.8510742,93.2470703 C59.8510742,92.02571 60.1564097,91.0743849 60.7670898,90.3930664 C61.37777,89.7117479 62.2254178,89.3710938 63.3100586,89.3710938 C64.3582409,89.3710938 65.1910776,89.7197231 65.8085938,90.4169922 C66.4261099,91.1142613 66.7348633,92.0576112 66.7348633,93.2470703 Z M61.0268555,93.2470703 C61.0268555,94.2041063 61.2182598,94.9332657 61.6010742,95.4345703 C61.9838886,95.9358749 62.5467085,96.1865234 63.2895508,96.1865234 C64.032393,96.1865234 64.5963522,95.9370142 64.9814453,95.4379883 C65.3665384,94.9389623 65.559082,94.2086637 65.559082,93.2470703 C65.559082,92.2945916 65.3665384,91.5711288 64.9814453,91.0766602 C64.5963522,90.5821915 64.0278358,90.3349609 63.2758789,90.3349609 C62.5330367,90.3349609 61.9724954,90.5787736 61.5942383,91.0664062 C61.2159812,91.5540389 61.0268555,92.2809196 61.0268555,93.2470703 Z M78.8139648,97 L77.5698242,93.8212891 L73.5639648,93.8212891 L72.3334961,97 L71.1577148,97 L75.1088867,86.9648438 L76.0864258,86.9648438 L80.0170898,97 L78.8139648,97 Z M77.2075195,92.7753906 L76.0454102,89.6787109 C75.8950188,89.2867819 75.7400724,88.8059924 75.5805664,88.2363281 C75.4803055,88.6738303 75.3367522,89.1546198 75.1499023,89.6787109 L73.9741211,92.7753906 L77.2075195,92.7753906 Z M84.2143555,97.1367188 C83.1297146,97.1367188 82.290042,96.8029005 81.6953125,96.1352539 C81.100583,95.4676073 80.8032227,94.5231181 80.8032227,93.3017578 C80.8032227,92.0484963 81.1051402,91.0800815 81.7089844,90.3964844 C82.3128285,89.7128872 83.1730087,89.3710938 84.2895508,89.3710938 C84.6495786,89.3710938 85.0096011,89.4098303 85.3696289,89.4873047 C85.7296567,89.564779 86.012206,89.655924 86.2172852,89.7607422 L85.8686523,90.7246094 C85.618,90.6243485 85.3445653,90.5411787 85.0483398,90.4750977 C84.7521144,90.4090166 84.4900728,90.3759766 84.262207,90.3759766 C82.740064,90.3759766 81.9790039,91.34667 81.9790039,93.2880859 C81.9790039,94.2086635 82.1647117,94.9150366 82.5361328,95.4072266 C82.9075539,95.8994165 83.4578414,96.1455078 84.1870117,96.1455078 C84.8113638,96.1455078 85.4516569,96.0110691 86.1079102,95.7421875 L86.1079102,96.7470703 C85.6066056,97.0068372 84.975427,97.1367188 84.2143555,97.1367188 Z M90.3051758,96.2001953 C90.5056976,96.2001953 90.6993806,96.1853843 90.8862305,96.1557617 C91.0730804,96.1261392 91.2211909,96.0953778 91.3305664,96.0634766 L91.3305664,96.9316406 C91.2075189,96.9908857 91.0263684,97.0398761 90.7871094,97.0786133 C90.5478504,97.1173505 90.3325205,97.1367188 90.1411133,97.1367188 C88.6918873,97.1367188 87.9672852,96.37338 87.9672852,94.8466797 L87.9672852,90.3896484 L86.894043,90.3896484 L86.894043,89.8427734 L87.9672852,89.3710938 L88.4458008,87.7714844 L89.1020508,87.7714844 L89.1020508,89.5078125 L91.2758789,89.5078125 L91.2758789,90.3896484 L89.1020508,90.3896484 L89.1020508,94.7988281 C89.1020508,95.2500023 89.2091461,95.596353 89.4233398,95.8378906 C89.6375336,96.0794283 89.931476,96.2001953 90.3051758,96.2001953 Z M93.9624023,97 L92.8276367,97 L92.8276367,89.5078125 L93.9624023,89.5078125 L93.9624023,97 Z M92.7319336,87.4775391 C92.7319336,87.2177721 92.795735,87.0275071 92.9233398,86.9067383 C93.0509446,86.7859694 93.2104483,86.7255859 93.4018555,86.7255859 C93.584148,86.7255859 93.741373,86.7871088 93.8735352,86.9101562 C94.0056973,87.0332037 94.0717773,87.2223295 94.0717773,87.4775391 C94.0717773,87.7327487 94.0056973,87.9230137 93.8735352,88.0483398 C93.741373,88.173666 93.584148,88.2363281 93.4018555,88.2363281 C93.2104483,88.2363281 93.0509446,88.173666 92.9233398,88.0483398 C92.795735,87.9230137 92.7319336,87.7327487 92.7319336,87.4775391 Z M102.835449,93.2470703 C102.835449,94.4684306 102.527835,95.4220343 101.912598,96.1079102 C101.29736,96.793786 100.447434,97.1367188 99.362793,97.1367188 C98.6928677,97.1367188 98.0981471,96.9794938 97.5786133,96.6650391 C97.0590794,96.3505844 96.6580418,95.899417 96.3754883,95.3115234 C96.0929348,94.7236299 95.9516602,94.0354857 95.9516602,93.2470703 C95.9516602,92.02571 96.2569956,91.0743849 96.8676758,90.3930664 C97.4783559,89.7117479 98.3260037,89.3710938 99.4106445,89.3710938 C100.458827,89.3710938 101.291664,89.7197231 101.90918,90.4169922 C102.526696,91.1142613 102.835449,92.0576112 102.835449,93.2470703 Z M97.1274414,93.2470703 C97.1274414,94.2041063 97.3188457,94.9332657 97.7016602,95.4345703 C98.0844746,95.9358749 98.6472945,96.1865234 99.3901367,96.1865234 C100.132979,96.1865234 100.696938,95.9370142 101.082031,95.4379883 C101.467124,94.9389623 101.659668,94.2086637 101.659668,93.2470703 C101.659668,92.2945916 101.467124,91.5711288 101.082031,91.0766602 C100.696938,90.5821915 100.128422,90.3349609 99.3764648,90.3349609 C98.6336226,90.3349609 98.0730813,90.5787736 97.6948242,91.0664062 C97.3165671,91.5540389 97.1274414,92.2809196 97.1274414,93.2470703 Z M109.95166,97 L109.95166,92.1533203 C109.95166,91.5426402 109.812664,91.0869156 109.534668,90.7861328 C109.256672,90.4853501 108.821455,90.3349609 108.229004,90.3349609 C107.445146,90.3349609 106.870933,90.5468729 106.506348,90.9707031 C106.141762,91.3945334 105.959473,92.0940706 105.959473,93.0693359 L105.959473,97 L104.824707,97 L104.824707,89.5078125 L105.747559,89.5078125 L105.932129,90.5332031 L105.986816,90.5332031 C106.219239,90.1640607 106.545083,89.8780935 106.964355,89.675293 C107.383628,89.4724925 107.850746,89.3710938 108.365723,89.3710938 C109.268071,89.3710938 109.947101,89.5887023 110.402832,90.0239258 C110.858563,90.4591493 111.086426,91.1552687 111.086426,92.1123047 L111.086426,97 L109.95166,97 Z" id="Call-to-Action" fill="#FFFFFF"></path>
                    <g id="Path-2">
                        <use fill="#FFFFFF" fill-rule="evenodd" xlink:href="#path-1"></use>
                        <path stroke="#c5c9d1" stroke-width="1" d="M61.7233513,90.9632298 L61.7233513,108.907708 C61.7233513,109.300605 61.7221626,109.486426 61.7163455,109.718072 C61.6782053,111.236883 61.4868266,112.026941 60.7117078,112.18576 C59.8628924,112.359679 58.8782006,111.322746 57.3665895,108.852209 C55.9296114,106.503649 53.4319808,105.946083 51.4172548,107.164703 C49.3628976,108.407295 48.7152502,110.940827 50.2222157,113.614513 C50.8523355,114.732483 51.4974934,116.105938 52.2550995,117.899385 C52.5128832,118.509624 52.7817871,119.163355 53.1017896,119.954626 C53.2272178,120.264772 53.3558246,120.584379 53.5256406,121.007567 C53.737912,121.536847 53.8557862,121.830754 53.9506804,122.066969 C57.2079811,130.175225 59.0643774,133.349996 61.2233513,133.349996 L70.2017433,133.349996 L80.3444215,133.349996 C83.1971451,133.349996 88.6564791,121.116171 88.6564791,112.742973 C88.6564791,109.03737 85.7348825,106.808389 79.9956886,105.046733 C78.762895,104.668325 74.8324063,103.627813 74.5130791,103.535792 C71.8114239,102.75725 70.6283371,102.112125 70.6283371,100.942638 L70.6283371,90.9632298 C70.6283371,87.8040784 68.9158194,85.6192565 66.0858241,85.6192565 C63.3076557,85.6192565 61.7233513,87.7657425 61.7233513,90.9632298 Z"></path>
                    </g>
                </g>
            </g>
        </g>
    </g>
</svg>