<?xml version="1.0" encoding="UTF-8"?>
<svg width="142px" height="131px" viewBox="0 0 142 131" version="1.1" xmlns="http://www.w3.org/2000/svg" xmlns:xlink="http://www.w3.org/1999/xlink">
    <!-- Generator: Sketch 44.1 (41455) - http://www.bohemiancoding.com/sketch -->
    <title>Icon 1</title>
    <desc>Created with Sketch.</desc>
    <defs></defs>
    <g id="Page-1" stroke="none" stroke-width="1" fill="none" fill-rule="evenodd">
        <g id="Novi_Main" transform="translate(-439.000000, -1640.000000)">
            <g id="Create-with-Novi" transform="translate(0.000000, 1391.000000)">
                <g id="Icon-1" transform="translate(439.000000, 249.000000)">
                    <g id="Group" transform="translate(0.000000, 33.000000)">
                        <rect id="Rectangle-6-Copy" stroke="#c5c9d1" x="0.5" y="0.570096685" width="88.769078" height="96.9299033" rx="4"></rect>
                        <rect id="Rectangle-3-Copy-3" fill="#c5c9d1" x="10.6090729" y="63.7245338" width="28.5628885" height="1" rx="0.5"></rect>
                        <rect id="Rectangle-3-Copy-4" fill="#c5c9d1" x="10.6090729" y="67.8049465" width="28.5628885" height="1" rx="0.5"></rect>
                        <rect id="Rectangle-3-Copy-5" fill="#c5c9d1" x="10.6090729" y="71.8853591" width="28.5628885" height="1" rx="0.5"></rect>
                        <rect id="Rectangle-3-Copy-6" fill="#c5c9d1" x="10.6090729" y="75.9657718" width="28.5628885" height="1" rx="0.5"></rect>
                        <rect id="Rectangle-3-Copy-7" fill="#c5c9d1" x="10.6090729" y="80.0461844" width="28.5628885" height="1" rx="0.5"></rect>
                        <rect id="Rectangle-6-Copy-42" stroke="#c5c9d1" x="11.1090729" y="24.23649" width="68.3670148" height="31.6433011" rx="2"></rect>
                        <path d="M11.8331967,24.9606138 L78.7519639,55.1556673" id="Line-Copy-5" stroke="#c5c9d1" stroke-linecap="square"></path>
                        <path d="M78.7519639,24.9606138 L11.8331967,55.1556673 L78.7519639,24.9606138 Z" id="Line-Copy-4" stroke="#c5c9d1" stroke-linecap="square"></path>
                        <path d="M16.7939978,12.2879774 L16.7939978,10.5595762 C16.7940025,10.2212557 16.5245777,9.94648878 16.191072,9.94469556 L14.4840316,9.94469556 C14.3149529,9.94449451 14.1624348,10.0477234 14.0977044,10.2061735 C14.0329739,10.3646236 14.0688029,10.5470319 14.1884587,10.6682123 L16.0839804,12.5867268 C16.2035851,12.7056672 16.3816657,12.7406223 16.5363748,12.6755264 C16.6910838,12.6104305 16.7924945,12.4578756 16.7939978,12.2879774 L16.7939978,12.2879774 Z" id="Shape-Copy-5" fill="#c5c9d1" fill-rule="nonzero"></path>
                        <path d="M11.8908417,9.94469527 L11.4110712,9.94469527 C11.0763101,9.94469527 10.8049327,10.2199867 10.8049327,10.5595759 L10.8049327,15.4894845 C10.8049327,15.8290737 11.0763101,16.1043651 11.4110712,16.1043651 L16.2751725,16.1043651 C16.6099336,16.1043651 16.881311,15.8290737 16.881311,15.4894845 L16.881311,15.0027945 C16.8812723,14.8622065 16.8261867,14.7273909 16.72817,14.6279998 L12.2603077,10.1033041 C12.1628582,10.0026774 12.0298937,9.94559683 11.8908417,9.94469527 Z" id="Shape-Copy-4" fill="#c5c9d1" fill-rule="nonzero"></path>
                    </g>
                    <path d="M56.4414062,15.9316406 C53.9570549,15.9316406 51.9414062,17.9472892 51.9414062,20.4316406 L51.9414062,126.5 C51.9414062,128.98435 53.9570549,131 56.4414062,131 L137.210938,131 C139.695289,131 141.710938,128.98435 141.710938,126.5 L141.710938,20.4316406 C141.710938,17.9472892 139.695289,15.9316406 137.210938,15.9316406 L56.4414062,15.9316406 Z M56.4414062,16.9316406 L137.210938,16.9316406 C139.158586,16.9316406 140.710938,18.483992 140.710938,20.4316406 L140.710938,126.5 C140.710938,128.44765 139.158586,130 137.210938,130 L56.4414062,130 C54.4937577,130 52.9414063,128.44765 52.9414062,126.5 L52.9414062,20.4316406 C52.9414062,18.483992 54.4937576,16.9316406 56.4414062,16.9316406 Z M66.353516,24.9902344 C66.018755,24.9902344 65.746094,25.26588 65.746094,25.605469 L65.746094,30.535156 C65.746094,30.874745 66.018755,31.150391 66.353516,31.150391 L71.216797,31.150391 C71.551558,31.150391 71.822266,30.874745 71.822266,30.535156 L71.822266,30.048828 C71.822227,29.90824 71.767939,29.773219 71.669922,29.673828 L67.203125,25.150391 C67.105675,25.049764 66.971083,24.9911359 66.832031,24.9902344 L66.353516,24.9902344 Z M98.789062,27.357422 C98.512063,27.357422 98.289062,27.580422 98.289062,27.857422 C98.289062,28.134422 98.512065,28.357422 98.789062,28.357422 L105.949219,28.357422 C106.226219,28.357422 106.449219,28.134422 106.449219,27.857422 C106.449219,27.580422 106.226219,27.357422 105.949219,27.357422 L98.789062,27.357422 Z M111.199219,27.357422 C110.922219,27.357422 110.699219,27.580422 110.699219,27.857422 C110.699219,28.134422 110.922219,28.357422 111.199219,28.357422 L118.361328,28.357422 C118.638328,28.357422 118.861328,28.134422 118.861328,27.857422 C118.861328,27.580422 118.638328,27.357422 118.361328,27.357422 L111.199219,27.357422 Z M123.441406,27.357422 C123.164406,27.357422 122.941406,27.580422 122.941406,27.857422 C122.941406,28.134422 123.164406,28.357422 123.441406,28.357422 L130.601562,28.357422 C130.878563,28.357422 131.101562,28.134422 131.101562,27.857422 C131.101562,27.580422 130.878563,27.357422 130.601562,27.357422 L123.441406,27.357422 Z M65.050781,38.783203 C63.67443,38.783203 62.550781,39.906852 62.550781,41.283203 L62.550781,68.925781 C62.550781,70.302133 63.67443,71.425781 65.050781,71.425781 L129.417969,71.425781 C130.79432,71.425781 131.917969,70.302133 131.917969,68.925781 L131.917969,41.283203 C131.917969,39.906852 130.79432,38.783203 129.417969,38.783203 L65.050781,38.783203 Z M65.050781,39.783203 L129.417969,39.783203 C129.563382,39.783203 129.699872,39.808591 129.832031,39.845703 L97.234375,54.556641 L64.636719,39.845703 C64.768878,39.808591 64.905368,39.783203 65.050781,39.783203 Z M63.75,40.542969 L96.019531,55.105469 L63.75,69.666016 C63.627329,69.447722 63.550781,69.198293 63.550781,68.925781 L63.550781,41.283203 C63.550781,41.010691 63.627329,40.761262 63.75,40.542969 Z M130.720703,40.544922 C130.842572,40.762696 130.917969,41.011648 130.917969,41.283203 L130.917969,68.925781 C130.917969,69.197337 130.842572,69.446288 130.720703,69.664062 L98.451172,55.105469 L130.720703,40.544922 Z M97.234375,55.652344 L129.832031,70.363281 C129.699872,70.400394 129.563382,70.425781 129.417969,70.425781 L65.050781,70.425781 C64.905368,70.425781 64.768878,70.400394 64.636719,70.363281 L97.234375,55.652344 Z M101.775391,81.21875 C100.399039,81.21875 99.275391,82.342399 99.275391,83.71875 L99.275391,111.361328 C99.275391,112.73768 100.399039,113.861328 101.775391,113.861328 L129.417969,113.861328 C130.79432,113.861328 131.917969,112.73768 131.917969,111.361328 L131.917969,83.71875 C131.917969,83.250753 131.780276,82.816729 131.554688,82.441406 L131.607422,82.388672 L131.240234,82.021484 C131.199831,81.978137 131.158582,81.936888 131.115234,81.896484 L130.900391,81.681641 L130.880859,81.701172 C130.468371,81.400914 129.964941,81.21875 129.417969,81.21875 L101.775391,81.21875 Z M101.775391,82.21875 L129.417969,82.21875 C129.69206,82.21875 129.942963,82.295921 130.162109,82.419922 L115.667969,96.914062 L101.119141,82.371094 C101.3172,82.276148 101.537671,82.21875 101.775391,82.21875 Z M100.417969,83.083984 L114.960938,97.621094 L100.476562,112.105469 C100.352562,111.886323 100.275391,111.63542 100.275391,111.361328 L100.275391,83.71875 C100.275391,83.489551 100.329344,83.276679 100.417969,83.083984 Z M130.816406,83.179688 C130.879566,83.347019 130.917969,83.526983 130.917969,83.71875 L130.917969,111.361328 C130.917969,111.595266 130.861648,111.812115 130.769531,112.007812 L116.375,97.621094 L130.816406,83.179688 Z M115.667969,98.328125 L130.0625,112.714844 C129.867405,112.806251 129.65095,112.861328 129.417969,112.861328 L101.775391,112.861328 C101.583624,112.861328 101.403659,112.822925 101.236328,112.759766 L115.667969,98.328125 Z M71.7358572,27.3341618 C71.734354,27.50406 71.6329432,27.6566148 71.4782342,27.7217108 C71.3235252,27.7868067 71.1454446,27.7518516 71.0258398,27.6329112 L69.1303182,25.7143967 C69.0106623,25.5932163 68.9748334,25.410808 69.0395638,25.2523579 C69.1042943,25.0939078 69.2568124,24.9906789 69.4258911,24.9908799 L71.1329314,24.9908799 C71.4664372,24.9926732 71.7358619,25.2674401 71.7358572,25.6057606 L71.7358572,27.3341618 Z" id="Rectangle-6-Copy-3" fill="#c5c9d1" fill-rule="nonzero"></path>
                    <g id="Group-5" transform="translate(24.000000, 0.000000)">
                        <rect id="Rectangle-6-Copy-43" fill="#c5c9d1" x="0.746805939" y="0.42679558" width="89.769078" height="130.573204" rx="4"></rect>
                        <rect id="Rectangle-3" fill="#FFFFFF" x="47.26351" y="11.851951" width="8.16082528" height="1" rx="0.5"></rect>
                        <rect id="Rectangle-3-Copy-3" fill="#FFFFFF" x="51.3439227" y="70.609893" width="28.5628885" height="1" rx="0.5"></rect>
                        <rect id="Rectangle-3-Copy-4" fill="#FFFFFF" x="51.3439227" y="76.3224706" width="28.5628885" height="1" rx="0.5"></rect>
                        <rect id="Rectangle-3-Copy-5" fill="#FFFFFF" x="51.3439227" y="82.0350483" width="28.5628885" height="1" rx="0.5"></rect>
                        <rect id="Rectangle-3-Copy-6" fill="#FFFFFF" x="51.3439227" y="87.747626" width="28.5628885" height="1" rx="0.5"></rect>
                        <rect id="Rectangle-3-Copy-7" fill="#FFFFFF" x="51.3439227" y="93.4602037" width="28.5628885" height="1" rx="0.5"></rect>
                        <rect id="Rectangle-3-Copy" fill="#FFFFFF" x="59.5047479" y="11.851951" width="8.16082528" height="1" rx="0.5"></rect>
                        <rect id="Rectangle-3-Copy-2" fill="#FFFFFF" x="71.7459858" y="11.851951" width="8.16082528" height="1" rx="0.5"></rect>
                        <rect id="Rectangle-6-Copy-4" stroke="#FFFFFF" x="11.0397963" y="25.4092714" width="68.3670148" height="31.6433011" rx="2"></rect>
                        <path d="M11.7639201,26.1333952 L78.6826873,56.3284487" id="Line" stroke="#FFFFFF" stroke-linecap="square"></path>
                        <path d="M78.6826873,26.1333952 L11.7639201,56.3284487 L78.6826873,26.1333952 Z" id="Line-Copy" stroke="#FFFFFF" stroke-linecap="square"></path>
                        <rect id="Rectangle-6-Copy-41" stroke="#FFFFFF" x="11.0397963" y="67.8455628" width="31.6433011" height="31.6433011" rx="2"></rect>
                        <path d="M11.7639201,68.5696866 L41.9589736,98.7647402" id="Line-Copy-3" stroke="#FFFFFF" stroke-linecap="square"></path>
                        <path d="M42.5191342,68.1616454 L11.5079982,99.1727814 L42.5191342,68.1616454 Z" id="Line-Copy-2" stroke="#FFFFFF" stroke-linecap="square"></path>
                    </g>
                    <g id="novi_logo_final" transform="translate(34.240000, 9.100000)" fill-rule="nonzero" fill="#FFFFFF">
                        <path d="M6.48472118,2.72859374 L6.48472118,1.00019255 C6.48472587,0.661872053 6.21530112,0.387105148 5.88179538,0.38531193 L4.174755,0.38531193 C4.00567634,0.385110873 3.8531582,0.488339746 3.78842778,0.646789837 C3.72369736,0.805239928 3.75952627,0.987648271 3.87918214,1.1088287 L5.77470376,3.02734316 C5.89430856,3.14628357 6.07238914,3.18123864 6.22709816,3.11614273 C6.38180719,3.05104682 6.48321794,2.89849199 6.48472118,2.72859374 L6.48472118,2.72859374 Z" id="Shape"></path>
                        <path d="M1.58156508,0.385311637 L1.10179463,0.385311637 C0.767033551,0.385311637 0.495656077,0.660603068 0.495656077,1.00019226 L0.495656077,5.93010085 C0.495656077,6.26969005 0.767033551,6.54498148 1.10179463,6.54498148 L5.96589588,6.54498148 C6.30065696,6.54498148 6.57203444,6.26969005 6.57203444,5.93010085 L6.57203444,5.44341089 C6.57199575,5.30282287 6.51691014,5.16800729 6.41889342,5.06861617 L1.95103115,0.543920419 C1.85358158,0.44329375 1.72061715,0.386213201 1.58156508,0.385311637 Z" id="Shape"></path>
                    </g>
                </g>
            </g>
        </g>
    </g>
</svg>