<?xml version="1.0" encoding="UTF-8"?>
<svg width="138px" height="132px" viewBox="0 0 138 132" version="1.1" xmlns="http://www.w3.org/2000/svg" xmlns:xlink="http://www.w3.org/1999/xlink">
    <!-- Generator: Sketch 44.1 (41455) - http://www.bohemiancoding.com/sketch -->
    <title>Icon 2</title>
    <desc>Created with Sketch.</desc>
    <defs>
        <path d="M54.8844512,22.3255616 L35,22.3255616 L35,22.3255616 C30.581722,22.3255616 27,25.9072836 27,30.3255616 L27,32.2410714 C27,36.6593494 30.581722,40.2410714 35,40.2410714 L103.944336,40.2410714 C108.362614,40.2410714 111.944336,36.6593494 111.944336,32.2410714 L111.944336,32.2410714 L111.944336,30.3255616 C111.944336,25.9072836 108.362614,22.3255616 103.944336,22.3255616 L103.944336,22.3255616 L84.0891866,22.3255616 C81.1654013,20.4506157 81.6070731,17.4168894 81.6070731,13.2243828 C81.6070731,4.13820219 75.5396205,0.331046058 69.472168,0.331046058 C63.4047154,0.331046058 57.3372628,4.15468179 57.3372628,13.2243828 C57.3372628,17.4168894 57.800775,20.4506157 54.8844512,22.3255616 Z" id="path-1"></path>
    </defs>
    <g id="Page-1" stroke="none" stroke-width="1" fill="none" fill-rule="evenodd">
        <g id="Novi_Main" transform="translate(-740.000000, -1640.000000)">
            <g id="Create-with-Novi" transform="translate(0.000000, 1391.000000)">
                <g id="Icon-2" transform="translate(740.000000, 249.000000)">
                    <rect id="Rectangle-6-Copy-44" fill="#c5c9d1" x="0" y="31" width="138" height="101" rx="4"></rect>
                    <rect id="Rectangle-3-Copy-3" fill="#FFFFFF" x="78" y="68" width="46.659668" height="1" rx="0.5"></rect>
                    <rect id="Rectangle-3-Copy-4" fill="#FFFFFF" x="78" y="75" width="46.659668" height="1" rx="0.5"></rect>
                    <rect id="Rectangle-3-Copy-5" fill="#FFFFFF" x="78" y="82" width="46.659668" height="1" rx="0.5"></rect>
                    <rect id="Rectangle-3-Copy-6" fill="#FFFFFF" x="78" y="89" width="46.659668" height="1" rx="0.5"></rect>
                    <rect id="Rectangle-3-Copy-7" fill="#FFFFFF" x="78" y="96" width="46.659668" height="1" rx="0.5"></rect>
                    <rect id="Rectangle-6-Copy-4" stroke="#FFFFFF" x="15.5" y="57.5" width="51" height="51" rx="2"></rect>
                    <ellipse id="Oval-2" stroke="#FFFFFF" cx="40.2174902" cy="76" rx="7.71749017" ry="7.5"></ellipse>
                    <g id="Combined-Shape">
                        <use fill="#FFFFFF" fill-rule="evenodd" xlink:href="#path-1"></use>
                        <path stroke="#c5c9d1" stroke-width="1" d="M55.1548469,22.7461399 L55.0313131,22.8255616 L35,22.8255616 C30.8578644,22.8255616 27.5,26.183426 27.5,30.3255616 L27.5,32.2410714 C27.5,36.3832071 30.8578644,39.7410714 35,39.7410714 L103.944336,39.7410714 C108.086472,39.7410714 111.444336,36.3832071 111.444336,32.2410714 L111.444336,30.3255616 C111.444336,26.183426 108.086472,22.8255616 103.944336,22.8255616 L83.9426401,22.8255616 L83.8192796,22.7464538 C81.42193,21.2090971 81.0307025,19.5711826 81.095227,14.6302072 C81.1038476,13.9700857 81.1070731,13.6294802 81.1070731,13.2243828 C81.1070731,5.30425359 76.2315928,0.831046058 69.472168,0.831046058 C62.7197688,0.831046058 57.8372628,5.31512002 57.8372628,13.2243828 C57.8372628,13.6454629 57.8409312,14.0000737 57.8506951,14.6835417 C57.9207897,19.5901706 57.5347279,21.2160807 55.1548469,22.7461399 Z"></path>
                    </g>
                    <circle id="Oval" stroke="#c5c9d1" cx="69.472168" cy="12.3799435" r="4.75428882"></circle>
                    <path d="M28,95.8519775 C28,90.9717515 32.2967725,84 40.1741886,84 C48.0516048,84 52.3483772,91.6689266 52.3483772,95.8519775" id="Path-9" stroke="#FFFFFF" stroke-linecap="round"></path>
                </g>
            </g>
        </g>
    </g>
</svg>