<?xml version="1.0" encoding="UTF-8"?>
<svg width="134px" height="130px" viewBox="0 0 134 130" version="1.1" xmlns="http://www.w3.org/2000/svg" xmlns:xlink="http://www.w3.org/1999/xlink">
    <!-- Generator: Sketch 44.1 (41455) - http://www.bohemiancoding.com/sketch -->
    <title>Icon 4</title>
    <desc>Created with Sketch.</desc>
    <defs>
        <path d="M13.5817449,52.0057163 L66.9838867,95.9272067 L120.386029,52.0057163 L120.386029,52.0057163 C123.79841,49.1991461 128.839866,49.6902528 131.646436,53.1026338 C132.823987,54.5343648 133.467773,56.3306039 133.467773,58.1843787 L133.467773,121.700637 L133.467773,121.700637 C133.467773,126.118915 129.886051,129.700637 125.467773,129.700637 L8.5,129.700637 L8.5,129.700637 C4.081722,129.700637 0.5,126.118915 0.5,121.700637 L0.5,58.1843787 L0.5,58.1843787 C0.5,53.7661007 4.081722,50.1843787 8.5,50.1843787 C10.3537747,50.1843787 12.1500138,50.828165 13.5817449,52.0057163 Z" id="path-1"></path>
    </defs>
    <g id="Page-1" stroke="none" stroke-width="1" fill="none" fill-rule="evenodd">
        <g id="Novi_Main" transform="translate(-1342.000000, -1642.000000)">
            <g id="Create-with-Novi" transform="translate(0.000000, 1391.000000)">
                <g id="Icon-4" transform="translate(1342.000000, 251.000000)">
                    <path d="M4.02756724,53.3325638 C13.0729629,46.8995295 62.4611889,10.7137115 67.8884263,10.7137115 C73.3156637,10.7137115 123.904307,49.3119174 130.236084,53.3325638" id="Path-7" stroke="#c5c9d1" stroke-linecap="round"></path>
                    <rect id="Rectangle-6-Copy" fill="#c5c9d1" x="16.5700285" y="0.476547862" width="101.123594" height="116.598747" rx="8"></rect>
                    <rect id="Rectangle-3-Copy-3" fill="#FFFFFF" x="30.6802975" y="62.3945032" width="73.7903068" height="1" rx="0.5"></rect>
                    <rect id="Rectangle-3-Copy-4" fill="#FFFFFF" x="30.6802975" y="68.0234082" width="73.7903068" height="1" rx="0.5"></rect>
                    <rect id="Rectangle-3-Copy-5" fill="#FFFFFF" x="30.6802975" y="73.6523132" width="73.7903068" height="1" rx="0.5"></rect>
                    <rect id="Rectangle-3-Copy-6" fill="#FFFFFF" x="30.6802975" y="79.2812183" width="73.7903068" height="1" rx="0.5"></rect>
                    <rect id="Rectangle-3-Copy-7" fill="#FFFFFF" x="30.6802975" y="84.9101233" width="73.7903068" height="1" rx="0.5"></rect>
                    <rect id="Rectangle-6-Copy-4" stroke="#FFFFFF" x="30.3963936" y="23.492168" width="73.3855747" height="31.1651716" rx="2"></rect>
                    <path d="M31.9017635,24.1983619 L102.79945,53.549081" id="Line" stroke="#FFFFFF" stroke-linecap="square"></path>
                    <path d="M103.224403,24.6004266 L31.4642013,54.3532103 L103.224403,24.6004266 Z" id="Line-Copy" stroke="#FFFFFF" stroke-linecap="square"></path>
                    <path d="M71.1163718,10.9072135 L71.1163718,9.20412839 C71.1163763,8.8707633 70.8575751,8.60002093 70.5372197,8.59825398 L68.8974891,8.59825398 C68.7350774,8.59805587 68.5885731,8.69977274 68.5263951,8.85590199 C68.464217,9.01203125 68.4986332,9.19176784 68.6135709,9.31117334 L70.4343508,11.2015871 C70.5492395,11.3187854 70.7202983,11.3532285 70.868907,11.289086 C71.0175157,11.2249436 71.1149278,11.0746233 71.1163718,10.9072135 L71.1163718,10.9072135 Z" id="Shape" fill="#FFFFFF" fill-rule="nonzero"></path>
                    <path d="M66.4032938,8.59825369 L65.942441,8.59825369 C65.6208798,8.59825369 65.3602029,8.8695129 65.3602029,9.2041281 L65.3602029,14.0618279 C65.3602029,14.3964431 65.6208798,14.6677023 65.942441,14.6677023 L70.6147474,14.6677023 C70.9363086,14.6677023 71.1969855,14.3964431 71.1969855,14.0618279 L71.1969855,13.5822665 C71.1969484,13.4437377 71.1440348,13.3108967 71.049883,13.2129614 L66.7581916,8.75453931 C66.6645845,8.65538653 66.536863,8.59914205 66.4032938,8.59825369 Z" id="Shape" fill="#FFFFFF" fill-rule="nonzero"></path>
                    <g id="Rectangle-6-Copy">
                        <use fill="#FFFFFF" fill-rule="evenodd" xlink:href="#path-1"></use>
                        <path stroke="#c5c9d1" stroke-width="1" d="M13.2641358,52.3918827 C11.921888,51.2879284 10.2379138,50.6843787 8.5,50.6843787 C4.35786438,50.6843787 1,54.0422431 1,58.1843787 L1,121.700637 C1,125.842773 4.35786438,129.200637 8.5,129.200637 L125.467773,129.200637 C129.609909,129.200637 132.967773,125.842773 132.967773,121.700637 L132.967773,58.1843787 C132.967773,56.4464649 132.364224,54.7624907 131.260269,53.4202429 C128.62911,50.2211357 123.902745,49.7607231 120.703638,52.3918827 L66.9838867,96.574596 L13.2641358,52.3918827 Z"></path>
                    </g>
                    <path d="M55.7652201,88.9307698 L2.45975958,126.724846 L55.7652201,88.9307698 Z" id="Line-Copy" stroke="#c5c9d1" stroke-linecap="square"></path>
                    <path d="M76.9306235,88.9307698 L131.019988,126.724846 L76.9306235,88.9307698 Z" id="Line-Copy-6" stroke="#c5c9d1" stroke-linecap="square"></path>
                </g>
            </g>
        </g>
    </g>
</svg>