<?xml version="1.0" encoding="iso-8859-1"?>
<!-- Generator: Adobe Illustrator 19.0.0, SVG Export Plug-In . SVG Version: 6.00 Build 0)  -->
<svg version="1.1" id="Layer_1" xmlns="http://www.w3.org/2000/svg" xmlns:xlink="http://www.w3.org/1999/xlink" x="0px" y="0px"
	 viewBox="0 0 512 512" style="enable-background:new 0 0 512 512;" xml:space="preserve">

	<g>
		<path fill='#c5c9d1' d="M437.019,74.981C388.667,26.628,324.379,0,256,0S123.333,26.628,74.981,74.981C26.628,123.333,0,187.621,0,256
			s26.628,132.667,74.981,181.019C123.333,485.372,187.621,512,256,512s132.667-26.628,181.019-74.981S512,324.379,512,256
			S485.372,123.333,437.019,74.981z M256,495.832C123.756,495.832,16.168,388.244,16.168,256S123.756,16.168,256,16.168
			S495.832,123.756,495.832,256S388.244,495.832,256,495.832z"/>
	</g>

	<g>
		<path fill='#c5c9d1' d="M347.845,97.011H164.155c-37.024,0-67.144,30.121-67.144,67.144v183.692c0,37.022,30.121,67.143,67.144,67.143h183.692
			c37.022,0,67.143-30.121,67.143-67.144V164.155C414.989,127.131,384.869,97.011,347.845,97.011z M398.821,347.845
			c0,28.108-22.868,50.976-50.976,50.976H164.155c-28.108,0-50.976-22.868-50.976-50.976V164.155
			c0-28.108,22.868-50.976,50.976-50.976h183.692c28.107,0,50.975,22.868,50.975,50.976V347.845z"/>
	</g>

	<g>
		<path fill='#c5c9d1' d="M339.402,251.22c-2.391-42.533-37.002-76.75-79.558-78.669c-49.108-2.214-89.535,38.232-87.292,87.346
			c1.945,42.56,36.19,77.154,78.728,79.51c17.951,0.995,34.762-3.727,48.803-12.494c4.374-2.731,5.087-8.814,1.441-12.459
			c-0.039-0.039-0.077-0.077-0.115-0.115c-2.657-2.658-6.778-3.059-9.971-1.075c-10.491,6.519-22.892,10.241-36.158,10.102
			c-37.455-0.394-67.676-31.844-66.621-69.286c1.061-37.681,33.215-67.721,71.657-65.312c33.126,2.076,60.09,28.49,62.819,61.569
			c1.111,13.475-1.787,26.206-7.61,37.157c-1.667,3.136-1.153,6.982,1.358,9.493c0.041,0.041,0.083,0.083,0.124,0.124
			c3.773,3.773,10.154,2.886,12.675-1.816C336.664,282.269,340.301,267.197,339.402,251.22z"/>
	</g>

	<g>
		<circle fill='#c5c9d1' cx="342.232" cy="158.989" r="21.558"/>
	</g>

</svg>
