<?xml version="1.0" encoding="utf-8"?>
<!-- Generator: Adobe Illustrator 17.0.0, SVG Export Plug-In . SVG Version: 6.00 Build 0)  -->
<!DOCTYPE svg PUBLIC "-//W3C//DTD SVG 1.1//EN" "http://www.w3.org/Graphics/SVG/1.1/DTD/svg11.dtd">
<svg version="1.1" id="Layer_1" xmlns="http://www.w3.org/2000/svg" xmlns:xlink="http://www.w3.org/1999/xlink" x="0px" y="0px"
	 width="300px" height="180px" viewBox="0 0 300 180" enable-background="new 0 0 300 180" xml:space="preserve">
<g>
	<path fill="#c5c9d1" d="M220.539,68.589v-4.993l-0.062,0.01v-0.391h-0.839l-3.099-1.892l-67.812-42.735l-3.677,2.378l0.146,0.095
		L83.205,60.964l-3.481,2.252h-0.561v4h0.042v1.422l2.192-1.422h136.972L220.539,68.589z M87.563,63.216l61.471-39.876
		l63.013,39.876H87.563z"/>
	<path fill="#c5c9d1" d="M220.487,155.123V63.519l-71.812,45.237L79.153,63.452v95.353l0.062-0.04v0.359h141.314v-4H220.487z
		 M216.487,70.766v80.725l-63.928-40.454L216.487,70.766z M83.153,70.833l61.991,40.396l-61.991,40.213V70.833z M148.982,113.507
		l65.763,41.617H84.828L148.982,113.507z"/>
</g>
</svg>
