<?xml version="1.0" encoding="iso-8859-1"?>
<!-- Generator: Adobe Illustrator 19.0.0, SVG Export Plug-In . SVG Version: 6.00 Build 0)  -->
<svg version="1.1" id="Layer_1" xmlns="http://www.w3.org/2000/svg" xmlns:xlink="http://www.w3.org/1999/xlink" x="0px" y="0px"
	 viewBox="0 0 512 512" style="enable-background:new 0 0 512 512;" xml:space="preserve">

	<g>
		<path fill='#c5c9d1' d="M468.32,53.08H43.68C19.595,53.08,0,72.675,0,96.76v283.087c0,0.003,0,0.008,0,0.011v35.381
			c0,24.085,19.595,43.68,43.68,43.68H468.32c24.085,0,43.68-19.595,43.68-43.68V96.76C512,72.675,492.405,53.08,468.32,53.08z
			 M43.68,442.333c-14.94,0-27.093-12.154-27.093-27.093v-31.951l39.375-39.375h182.344c1.55,0,2.996-0.433,4.238-1.173
			l99.592,99.592H43.68z M230.013,299.68v26.851c-0.004,0.155-0.004,0.31,0,0.463v0.332H60.821V299.68H230.013z M116.784,283.093
			l13.9-13.899c5.117-5.117,11.92-7.935,19.156-7.935c7.237,0,14.04,2.818,19.156,7.935l13.9,13.899H116.784z M495.413,415.24
			c0,14.939-12.153,27.093-27.093,27.093H365.596L255.978,332.715l131.259-131.259c5.117-5.117,11.92-7.935,19.156-7.935
			s14.04,2.818,19.156,7.935l69.863,69.863V415.24z M495.413,247.86l-58.133-58.132c-8.251-8.251-19.219-12.794-30.887-12.794
			c-11.668,0-22.636,4.544-30.887,12.793L246.6,318.633v-27.247c0-4.58-3.712-8.294-8.294-8.294h-31.951l-25.629-25.629
			c-8.251-8.249-19.219-12.793-30.887-12.793c-11.668,0-22.636,4.544-30.887,12.793l-25.629,25.629H52.527
			c-4.581,0-8.294,3.713-8.294,8.294v40.797L16.587,359.83V96.76c0-14.939,12.153-27.093,27.093-27.093H468.32
			c14.94,0,27.093,12.154,27.093,27.093V247.86z"/>
	</g>

	<g>
		<path fill='#c5c9d1' d="M317.927,168.088h-19.046c-1.137-5.889-3.451-11.362-6.702-16.156l13.475-13.475c3.239-3.239,3.239-8.491,0-11.728
			c-3.24-3.239-8.491-3.239-11.73,0l-13.475,13.475c-4.794-3.25-10.267-5.565-16.155-6.701v-19.048c0-4.58-3.712-8.294-8.294-8.294
			s-8.294,3.713-8.294,8.294v19.046c-5.889,1.137-11.361,3.451-16.155,6.701l-13.475-13.475c-3.24-3.239-8.491-3.239-11.73,0
			c-3.239,3.239-3.239,8.491,0,11.728l13.475,13.475c-3.25,4.794-5.566,10.268-6.702,16.156h-19.046
			c-4.581,0-8.294,3.713-8.294,8.294s3.712,8.295,8.294,8.295h19.046c1.137,5.889,3.451,11.362,6.702,16.156l-13.475,13.475
			c-3.239,3.239-3.239,8.491,0,11.728c1.62,1.619,3.743,2.43,5.865,2.43c2.122,0,4.245-0.809,5.865-2.43l13.475-13.475
			c4.794,3.25,10.267,5.565,16.155,6.701v19.047c0,4.58,3.712,8.294,8.294,8.294s8.294-3.713,8.294-8.294v-19.046
			c5.889-1.137,11.361-3.451,16.155-6.701l13.475,13.475c1.62,1.619,3.743,2.43,5.865,2.43s4.245-0.809,5.865-2.43
			c3.239-3.239,3.239-8.491,0-11.728l-13.475-13.475c3.25-4.794,5.566-10.268,6.702-16.156h19.044c4.581,0,8.294-3.713,8.294-8.294
			C326.22,171.801,322.508,168.088,317.927,168.088z M256,203.473c-14.94,0-27.093-12.154-27.093-27.093S241.06,149.287,256,149.287
			s27.093,12.154,27.093,27.093S270.94,203.473,256,203.473z"/>
	</g>

	<g>
		<path fill='#c5c9d1' d="M238.307,362.713H52.527c-4.581,0-8.294,3.713-8.294,8.294s3.712,8.294,8.294,8.294h185.78
			c4.581,0,8.294-3.713,8.294-8.294S242.888,362.713,238.307,362.713z"/>
	</g>

	<g>
		<path fill='#c5c9d1' d="M167.533,398.099H52.527c-4.581,0-8.294,3.713-8.294,8.294c0,4.58,3.712,8.294,8.294,8.294h115.006
			c4.581,0,8.294-3.713,8.294-8.294C175.827,401.813,172.115,398.099,167.533,398.099z"/>
	</g>

</svg>
