<?xml version="1.0" encoding="utf-8"?>
<!-- Generator: Adobe Illustrator 17.0.0, SVG Export Plug-In . SVG Version: 6.00 Build 0)  -->
<!DOCTYPE svg PUBLIC "-//W3C//DTD SVG 1.1//EN" "http://www.w3.org/Graphics/SVG/1.1/DTD/svg11.dtd">
<svg version="1.1" id="Layer_1" xmlns="http://www.w3.org/2000/svg" xmlns:xlink="http://www.w3.org/1999/xlink" x="0px" y="0px"
	 width="300px" height="180px" viewBox="0 0 300 180" enable-background="new 0 0 300 180" xml:space="preserve">
<g>
	<path fill="#c5c9d1" d="M151.262,160.798c-3.007,0-5.89-1.281-7.908-3.516l-2.983-3.328c-1.846-2.06-4.963-2.75-7.511-1.646
		l-4.104,1.75c-1.328,0.576-2.741,0.871-4.187,0.871c-4.689,0-8.873-3.147-10.175-7.653l-1.231-4.269
		c-0.798-2.724-3.234-4.632-6.061-4.742l-4.452-0.2c-3.031-0.135-5.866-1.568-7.776-3.932c-1.908-2.361-2.714-5.432-2.21-8.422
		l0.745-4.385c0.481-2.802-0.878-5.582-3.382-6.922l-3.92-2.09c-2.672-1.428-4.604-3.941-5.302-6.896
		c-0.701-2.964-0.096-6.086,1.66-8.567l2.578-3.638c1.628-2.311,1.602-5.401-0.069-7.688l-2.64-3.643
		c-1.784-2.458-2.433-5.569-1.778-8.536c0.654-2.962,2.55-5.508,5.202-6.985l3.902-2.152c2.472-1.378,3.799-4.181,3.294-6.97
		l-0.802-4.378c-0.554-2.987,0.206-6.074,2.085-8.465c1.879-2.392,4.698-3.861,7.732-4.03l4.434-0.257
		c2.828-0.154,5.227-2.096,5.977-4.833l1.174-4.294c1.267-4.593,5.468-7.798,10.218-7.798c1.388,0,2.749,0.271,4.045,0.808
		l4.119,1.687c2.575,1.061,5.662,0.313,7.503-1.788l2.917-3.347c2-2.304,4.906-3.628,7.971-3.628c3.007,0,5.89,1.281,7.908,3.516
		l2.983,3.327c1.846,2.062,4.965,2.749,7.511,1.647l4.104-1.75c1.328-0.576,2.741-0.871,4.187-0.871
		c4.689,0,8.873,3.147,10.175,7.654l1.231,4.268c0.798,2.724,3.234,4.632,6.06,4.742l4.452,0.201
		c3.031,0.135,5.866,1.567,7.776,3.931c1.909,2.361,2.714,5.432,2.21,8.423l-0.745,4.384c-0.481,2.802,0.878,5.583,3.382,6.922
		l3.92,2.089c2.672,1.428,4.604,3.941,5.302,6.896c0.701,2.964,0.096,6.086-1.66,8.568l-2.578,3.638
		c-1.628,2.311-1.602,5.401,0.069,7.688l2.635,3.608c1.789,2.463,2.437,5.575,1.782,8.541c-0.654,2.963-2.55,5.509-5.202,6.986
		l-3.902,2.151c-2.472,1.379-3.799,4.182-3.294,6.971l0.802,4.378c0.554,2.987-0.206,6.074-2.086,8.466
		c-1.879,2.393-4.698,3.86-7.732,4.029l-4.434,0.258c-2.822,0.177-5.228,2.13-5.977,4.861l-1.174,4.294
		c-1.267,4.594-5.468,7.799-10.218,7.799c0,0,0,0-0.001,0c-1.387,0-2.748-0.271-4.044-0.807l-4.119-1.688
		c-2.578-1.062-5.663-0.312-7.503,1.788l-2.917,3.347C157.234,159.474,154.327,160.798,151.262,160.798z M135.468,147.767
		c3.007,0,5.88,1.282,7.882,3.517l2.978,3.322c1.256,1.391,3.056,2.191,4.934,2.191c1.905,0,3.711-0.821,4.953-2.253l2.924-3.354
		c2.034-2.32,4.957-3.649,8.023-3.649c1.382,0,2.732,0.268,4.012,0.794l4.121,1.689c0.814,0.336,1.661,0.506,2.522,0.506
		c2.956,0,5.572-1.997,6.361-4.858l1.173-4.291c1.201-4.381,5.057-7.514,9.594-7.798l4.448-0.259
		c1.892-0.104,3.644-1.019,4.813-2.506c1.169-1.488,1.642-3.409,1.297-5.271l-0.803-4.386c-0.811-4.476,1.315-8.969,5.289-11.186
		l3.903-2.151c1.646-0.917,2.828-2.504,3.235-4.351c0.408-1.85,0.003-3.79-1.11-5.324l-2.632-3.604
		c-2.683-3.672-2.726-8.638-0.105-12.355l2.58-3.641c1.092-1.543,1.468-3.489,1.032-5.336c-0.435-1.838-1.635-3.401-3.292-4.287
		l-3.921-2.089c-4.029-2.155-6.214-6.625-5.441-11.125l0.744-4.377c0.313-1.859-0.188-3.77-1.377-5.241
		c-1.19-1.473-2.956-2.366-4.844-2.45l-4.44-0.201c-4.534-0.176-8.45-3.239-9.733-7.622l-1.233-4.274
		c-0.811-2.805-3.415-4.764-6.333-4.764c-0.895,0-1.772,0.184-2.606,0.545l-4.106,1.751c-1.323,0.572-2.734,0.864-4.186,0.864
		c-3.007,0-5.88-1.282-7.883-3.518l-2.978-3.321c-1.256-1.391-3.056-2.191-4.934-2.191c-1.905,0-3.71,0.821-4.953,2.253
		l-2.924,3.354c-2.033,2.32-4.957,3.649-8.022,3.649c-1.383,0-2.732-0.268-4.012-0.794l-4.121-1.688
		c-0.815-0.337-1.662-0.506-2.523-0.506c-2.956,0-5.572,1.998-6.36,4.857l-1.173,4.292c-1.207,4.4-5.068,7.522-9.61,7.77
		l-4.432,0.257c-1.892,0.105-3.645,1.019-4.814,2.507c-1.169,1.488-1.642,3.409-1.297,5.269l0.803,4.386
		c0.811,4.476-1.315,8.97-5.289,11.185l-3.903,2.153c-1.646,0.917-2.828,2.503-3.235,4.35c-0.409,1.85-0.004,3.791,1.11,5.325
		l2.636,3.638c2.679,3.666,2.722,8.632,0.101,12.35l-2.58,3.641c-1.092,1.543-1.468,3.489-1.032,5.336
		c0.435,1.839,1.635,3.401,3.292,4.288l3.921,2.09c4.029,2.155,6.214,6.625,5.441,11.124l-0.744,4.378
		c-0.313,1.858,0.188,3.77,1.377,5.24c1.19,1.474,2.957,2.366,4.845,2.45l4.44,0.2c4.533,0.176,8.45,3.239,9.733,7.621l1.233,4.275
		c0.811,2.805,3.415,4.764,6.333,4.764c0.895,0,1.771-0.184,2.606-0.546l4.106-1.751
		C132.605,148.059,134.016,147.767,135.468,147.767z"/>
	<g>
		<path fill="#c5c9d1" d="M146.896,80.798c0,4.159-0.698,7.301-2.093,9.426c-1.395,2.125-3.443,3.188-6.142,3.188
			c-2.554,0-4.538-1.085-5.951-3.256c-1.413-2.17-2.12-5.29-2.12-9.357c0-4.14,0.68-7.259,2.038-9.357
			c1.358-2.097,3.369-3.146,6.033-3.146c2.644,0,4.679,1.086,6.101,3.256C146.185,73.722,146.896,76.804,146.896,80.798z
			 M134.365,80.798c0,3.101,0.338,5.427,1.012,6.977c0.674,1.551,1.769,2.326,3.283,2.326c2.992,0,4.487-3.101,4.487-9.303
			c0-6.165-1.495-9.248-4.487-9.248c-1.514,0-2.609,0.766-3.283,2.298S134.365,77.698,134.365,80.798z M163.942,68.869
			l-22.19,40.001h-4.022l22.19-40.001H163.942z M171.001,96.832c0,4.141-0.698,7.274-2.093,9.398
			c-1.395,2.125-3.443,3.188-6.142,3.188c-2.59,0-4.583-1.085-5.978-3.256c-1.395-2.17-2.093-5.281-2.093-9.33
			c0-4.14,0.68-7.259,2.038-9.357c1.358-2.097,3.369-3.146,6.033-3.146c2.59,0,4.61,1.072,6.06,3.215
			C170.276,89.687,171.001,92.782,171.001,96.832z M158.443,96.832c0,3.119,0.338,5.45,1.012,6.991
			c0.674,1.542,1.778,2.312,3.311,2.312c1.532,0,2.664-0.761,3.393-2.285c0.729-1.523,1.094-3.862,1.094-7.018
			c0-3.119-0.365-5.431-1.094-6.936c-0.729-1.505-1.861-2.257-3.393-2.257c-1.532,0-2.636,0.752-3.311,2.257
			S158.443,93.713,158.443,96.832z"/>
	</g>
</g>
</svg>
