<?xml version="1.0" encoding="utf-8"?>
<!-- Generator: Adobe Illustrator 17.0.0, SVG Export Plug-In . SVG Version: 6.00 Build 0)  -->
<!DOCTYPE svg PUBLIC "-//W3C//DTD SVG 1.1//EN" "http://www.w3.org/Graphics/SVG/1.1/DTD/svg11.dtd">
<svg version="1.1" id="Layer_1" xmlns="http://www.w3.org/2000/svg" xmlns:xlink="http://www.w3.org/1999/xlink" x="0px" y="0px"
	 width="300px" height="180px" viewBox="0 0 300 180" enable-background="new 0 0 300 180" xml:space="preserve">
<g>
	<path fill="#c5c9d1" d="M111.719,88.813H50.637V27.731h61.082V88.813z M54.637,84.813h53.082V31.731H54.637V84.813z"/>
	<path fill="#c5c9d1" d="M182.077,88.813h-61.083V27.731h61.083V88.813z M124.995,84.813h53.083V31.731h-53.083V84.813z"/>
	<path fill="#c5c9d1" d="M252.435,88.643h-61.082V27.561h61.082V88.643z M195.353,84.643h53.082V31.561h-53.082V84.643z"/>
	<rect x="50.563" y="98.556" fill="#c5c9d1" width="60.833" height="4"/>
	<rect x="50.563" y="109.722" fill="#c5c9d1" width="60.833" height="4"/>
	<rect x="50.563" y="120.889" fill="#c5c9d1" width="46.568" height="4"/>
	<rect x="121.214" y="98.556" fill="#c5c9d1" width="60.833" height="4"/>
	<rect x="121.214" y="109.722" fill="#c5c9d1" width="60.833" height="4"/>
	<rect x="121.214" y="120.889" fill="#c5c9d1" width="46.568" height="4"/>
	<rect x="191.477" y="98.556" fill="#c5c9d1" width="60.833" height="4"/>
	<rect x="191.477" y="109.722" fill="#c5c9d1" width="60.833" height="4"/>
	<rect x="191.477" y="120.889" fill="#c5c9d1" width="46.568" height="4"/>
	<polygon fill="#c5c9d1" points="283.755,58.101 280.927,55.273 280.926,55.274 269.613,43.96 266.785,46.789 278.098,58.102 
		266.785,69.415 269.613,72.243 280.926,60.93 280.927,60.931 283.755,58.103 283.755,58.102 	"/>
	<polygon fill="#c5c9d1" points="19.118,58.103 21.947,60.931 21.947,60.93 33.26,72.243 36.089,69.415 24.776,58.102 
		36.089,46.789 33.26,43.96 21.947,55.274 21.947,55.273 19.118,58.101 19.119,58.102 	"/>
	<circle fill="#c5c9d1" cx="137.29" cy="149.646" r="4.435"/>
	<circle fill="#c5c9d1" cx="151.437" cy="149.646" r="4.435"/>
	<circle fill="#c5c9d1" cx="165.584" cy="149.646" r="4.435"/>
</g>
</svg>
