<?xml version="1.0" encoding="utf-8"?>
<!-- Generator: Adobe Illustrator 17.0.0, SVG Export Plug-In . SVG Version: 6.00 Build 0)  -->
<!DOCTYPE svg PUBLIC "-//W3C//DTD SVG 1.1//EN" "http://www.w3.org/Graphics/SVG/1.1/DTD/svg11.dtd">
<svg version="1.1" id="Layer_1" xmlns="http://www.w3.org/2000/svg" xmlns:xlink="http://www.w3.org/1999/xlink" x="0px" y="0px"
	 width="300px" height="180px" viewBox="0 0 300 180" enable-background="new 0 0 300 180" xml:space="preserve">
<g>
	<path fill="#c5c9d1" d="M110.066,102.699H48.984V41.617h61.082V102.699z M52.984,98.699h53.082V45.617H52.984V98.699z"/>
	<path fill="#c5c9d1" d="M180.423,102.699h-61.082V41.617h61.082V102.699z M123.341,98.699h53.082V45.617h-53.082V98.699z"/>
	<path fill="#c5c9d1" d="M250.782,102.529H189.7V41.447h61.082V102.529z M193.7,98.529h53.082V45.447H193.7V98.529z"/>
	<rect x="48.91" y="112.442" fill="#c5c9d1" width="60.833" height="4"/>
	<rect x="48.91" y="123.608" fill="#c5c9d1" width="60.833" height="4"/>
	<rect x="48.91" y="134.775" fill="#c5c9d1" width="46.568" height="4"/>
	<rect x="119.56" y="112.442" fill="#c5c9d1" width="60.833" height="4"/>
	<rect x="119.56" y="123.608" fill="#c5c9d1" width="60.833" height="4"/>
	<rect x="119.56" y="134.775" fill="#c5c9d1" width="46.568" height="4"/>
	<rect x="189.824" y="112.442" fill="#c5c9d1" width="60.833" height="4"/>
	<rect x="189.824" y="123.608" fill="#c5c9d1" width="60.833" height="4"/>
	<rect x="189.824" y="134.775" fill="#c5c9d1" width="46.568" height="4"/>
</g>
</svg>
