<?xml version="1.0" encoding="utf-8"?>
<!-- Generator: Adobe Illustrator 17.0.0, SVG Export Plug-In . SVG Version: 6.00 Build 0)  -->
<!DOCTYPE svg PUBLIC "-//W3C//DTD SVG 1.1//EN" "http://www.w3.org/Graphics/SVG/1.1/DTD/svg11.dtd">
<svg version="1.1" id="Layer_1" xmlns="http://www.w3.org/2000/svg" xmlns:xlink="http://www.w3.org/1999/xlink" x="0px" y="0px"
	 width="300px" height="180px" viewBox="0 0 300 180" enable-background="new 0 0 300 180" xml:space="preserve">
<g>
	<path fill="#c5c9d1" d="M111.657,95.632H50.575v-54.22h61.082V95.632z M54.575,91.632h53.082v-46.22H54.575V91.632z"/>
	<path fill="#c5c9d1" d="M182.015,102.632h-61.083V41.55h61.083V102.632z M124.933,98.632h53.083V45.55h-53.083V98.632z"/>
	<path fill="#c5c9d1" d="M252.373,73.462h-61.082V41.745h61.082V73.462z M195.291,69.462h53.082V45.745h-53.082V69.462z"/>
	<rect x="50.501" y="105.375" fill="#c5c9d1" width="60.833" height="4"/>
	<rect x="50.501" y="116.541" fill="#c5c9d1" width="60.833" height="4"/>
	<rect x="50.501" y="127.708" fill="#c5c9d1" width="46.568" height="4"/>
	<rect x="121.152" y="112.375" fill="#c5c9d1" width="60.833" height="4"/>
	<rect x="121.152" y="123.541" fill="#c5c9d1" width="60.833" height="4"/>
	<rect x="121.152" y="134.708" fill="#c5c9d1" width="46.568" height="4"/>
	<rect x="191.415" y="83.375" fill="#c5c9d1" width="60.833" height="4"/>
	<rect x="191.415" y="94.541" fill="#c5c9d1" width="60.833" height="4"/>
	<rect x="191.415" y="105.708" fill="#c5c9d1" width="46.568" height="4"/>
</g>
</svg>
