<?xml version="1.0" encoding="utf-8"?>
<!-- Generator: Adobe Illustrator 17.0.0, SVG Export Plug-In . SVG Version: 6.00 Build 0)  -->
<!DOCTYPE svg PUBLIC "-//W3C//DTD SVG 1.1//EN" "http://www.w3.org/Graphics/SVG/1.1/DTD/svg11.dtd">
<svg version="1.1" id="Layer_1" xmlns="http://www.w3.org/2000/svg" xmlns:xlink="http://www.w3.org/1999/xlink" x="0px" y="0px"
	 width="300px" height="180px" viewBox="0 0 300 180" enable-background="new 0 0 300 180" xml:space="preserve">
<g>
	<path fill="#c5c9d1" d="M223.823,160.768H82.509V19.454h141.314V160.768z M86.509,156.768h133.314V23.454H86.509V156.768z"/>
	<g>
		<path fill="#c5c9d1" d="M153.782,93.13c0,2.033-0.762,3.71-2.286,5.033s-3.654,2.156-6.389,2.5v5.201h-2.893v-4.999
			c-1.674,0-3.295-0.13-4.864-0.392c-1.569-0.261-2.854-0.624-3.855-1.087v-3.497c1.24,0.553,2.671,1.005,4.293,1.356
			c1.621,0.351,3.097,0.527,4.427,0.527v-9.864c-3.063-0.971-5.212-2.1-6.444-3.385c-1.233-1.285-1.85-2.944-1.85-4.977
			c0-1.958,0.759-3.564,2.275-4.819s3.523-2.018,6.019-2.287v-4.08h2.893v4.035c2.749,0.075,5.402,0.627,7.958,1.659l-1.166,2.937
			c-2.227-0.882-4.491-1.405-6.792-1.569v9.729c2.346,0.748,4.103,1.476,5.268,2.186c1.166,0.71,2.025,1.524,2.578,2.444
			C153.506,90.698,153.782,91.815,153.782,93.13z M137.709,79.501c0,1.136,0.337,2.047,1.009,2.735
			c0.673,0.688,1.839,1.337,3.497,1.95V75.51c-1.479,0.239-2.6,0.706-3.362,1.401C138.091,77.606,137.709,78.469,137.709,79.501z
			 M149.971,93.422c0-1.076-0.333-1.946-0.998-2.612c-0.665-0.665-1.954-1.326-3.866-1.984v8.721
			C148.349,97.098,149.971,95.723,149.971,93.422z"/>
		<path fill="#c5c9d1" d="M172.837,103.196h-3.631V79.837c0-1.942,0.059-3.781,0.179-5.515c-0.313,0.314-0.665,0.643-1.054,0.986
			c-0.389,0.344-2.167,1.801-5.335,4.372l-1.973-2.556l8.676-6.703h3.138V103.196z"/>
	</g>
</g>
</svg>
