<?xml version="1.0" encoding="utf-8"?>
<!-- Generator: Adobe Illustrator 17.0.0, SVG Export Plug-In . SVG Version: 6.00 Build 0)  -->
<!DOCTYPE svg PUBLIC "-//W3C//DTD SVG 1.1//EN" "http://www.w3.org/Graphics/SVG/1.1/DTD/svg11.dtd">
<svg version="1.1" id="Layer_1" xmlns="http://www.w3.org/2000/svg" xmlns:xlink="http://www.w3.org/1999/xlink" x="0px" y="0px"
	 width="300px" height="180px" viewBox="0 0 300 180" enable-background="new 0 0 300 180" xml:space="preserve">
<g>
	<path fill="#c5c9d1" d="M254.065,123.298H52.267V26.141h201.798V123.298z M56.267,119.298h193.798V30.141H56.267V119.298z"/>
	<polygon fill="#c5c9d1" points="285.484,74.719 282.656,71.89 282.655,71.891 271.342,60.578 268.514,63.406 279.827,74.719 
		268.514,86.033 271.342,88.861 282.655,77.548 282.656,77.549 285.484,74.72 285.484,74.719 	"/>
	<polygon fill="#c5c9d1" points="20.847,74.72 23.676,77.549 23.676,77.548 34.989,88.861 37.818,86.033 26.505,74.72 
		37.818,63.406 34.989,60.578 23.676,71.891 23.676,71.89 20.847,74.719 20.848,74.72 	"/>
	<circle fill="#c5c9d1" cx="139.019" cy="149.544" r="4.435"/>
	<circle fill="#c5c9d1" cx="153.166" cy="149.544" r="4.435"/>
	<circle fill="#c5c9d1" cx="167.313" cy="149.544" r="4.435"/>
</g>
</svg>
