<?xml version="1.0" encoding="utf-8"?>
<!-- Generator: Adobe Illustrator 17.0.0, SVG Export Plug-In . SVG Version: 6.00 Build 0)  -->
<!DOCTYPE svg PUBLIC "-//W3C//DTD SVG 1.1//EN" "http://www.w3.org/Graphics/SVG/1.1/DTD/svg11.dtd">
<svg version="1.1" id="Layer_1" xmlns="http://www.w3.org/2000/svg" xmlns:xlink="http://www.w3.org/1999/xlink" x="0px" y="0px"
	 width="300px" height="180px" viewBox="0 0 300 180" enable-background="new 0 0 300 180" xml:space="preserve">
<g>
	<path fill="#c5c9d1" d="M250.745,124.059H48.947V26.902h201.798V124.059z M52.947,120.059h193.798V30.902H52.947V120.059z"/>
	<g>
		<rect x="119.429" y="68.314" fill="#c5c9d1" width="60.833" height="4"/>
		<rect x="126.562" y="78.647" fill="#c5c9d1" width="46.568" height="4"/>
	</g>
	<g>
		<polygon fill="#c5c9d1" points="282.164,75.48 279.336,72.651 279.335,72.652 268.022,61.339 265.194,64.167 276.507,75.48 
			265.194,86.793 268.022,89.622 279.335,78.309 279.336,78.309 282.164,75.481 282.164,75.48 		"/>
		<polygon fill="#c5c9d1" points="17.527,75.481 20.356,78.309 20.356,78.309 31.669,89.622 34.498,86.793 23.185,75.48 
			34.498,64.167 31.669,61.339 20.356,72.652 20.356,72.651 17.527,75.48 17.528,75.48 		"/>
	</g>
	<g>
		<circle fill="#c5c9d1" cx="135.698" cy="150.305" r="4.435"/>
		<circle fill="#c5c9d1" cx="149.846" cy="150.305" r="4.435"/>
		<circle fill="#c5c9d1" cx="163.993" cy="150.305" r="4.435"/>
	</g>
</g>
</svg>
