<?xml version="1.0" encoding="utf-8"?>
<!-- Generator: Adobe Illustrator 17.0.0, SVG Export Plug-In . SVG Version: 6.00 Build 0)  -->
<!DOCTYPE svg PUBLIC "-//W3C//DTD SVG 1.1//EN" "http://www.w3.org/Graphics/SVG/1.1/DTD/svg11.dtd">
<svg version="1.1" id="Layer_1" xmlns="http://www.w3.org/2000/svg" xmlns:xlink="http://www.w3.org/1999/xlink" x="0px" y="0px"
	 width="300px" height="180px" viewBox="0 0 300 180" enable-background="new 0 0 300 180" xml:space="preserve">
<g>
	<path fill="#c5c9d1" d="M195.085,56.139c0-25.227-20.523-45.75-45.75-45.75s-45.75,20.523-45.75,45.75
		c0,12.927,5.398,24.609,14.047,32.938l-0.025,0.051l1.123,1.012c3.256,2.933,6.883,5.348,10.759,7.217
		c0.049,0.023,0.098,0.045,0.147,0.068c0.584,0.279,1.173,0.547,1.768,0.801c0.175,0.075,0.353,0.144,0.529,0.217
		c0.473,0.195,0.947,0.385,1.426,0.563c0.258,0.096,0.518,0.187,0.778,0.278c0.405,0.143,0.81,0.282,1.219,0.413
		c0.312,0.1,0.626,0.195,0.941,0.289c0.366,0.109,0.732,0.214,1.101,0.313c0.346,0.094,0.693,0.183,1.042,0.269
		c0.35,0.086,0.7,0.166,1.052,0.243c0.362,0.08,0.724,0.157,1.089,0.228c0.353,0.069,0.708,0.13,1.063,0.19
		c0.363,0.062,0.725,0.124,1.091,0.177c0.378,0.055,0.759,0.1,1.139,0.145c0.344,0.041,0.687,0.086,1.033,0.119
		c0.446,0.043,0.895,0.073,1.344,0.103c0.285,0.019,0.568,0.045,0.854,0.059c0.738,0.036,1.478,0.056,2.221,0.056
		c0.003,0,0.006,0,0.01,0h0c0,0,0,0,0,0c0.746,0,1.49-0.021,2.232-0.057c0.279-0.013,0.555-0.039,0.833-0.058
		c0.457-0.031,0.914-0.06,1.368-0.104c0.338-0.033,0.673-0.076,1.009-0.116c0.389-0.047,0.779-0.092,1.166-0.149
		c0.357-0.052,0.71-0.113,1.064-0.173c0.365-0.062,0.73-0.125,1.093-0.196c0.355-0.069,0.708-0.145,1.06-0.222
		c0.363-0.08,0.725-0.163,1.086-0.251c0.337-0.083,0.673-0.169,1.007-0.26c0.383-0.103,0.763-0.212,1.143-0.325
		c0.301-0.09,0.601-0.18,0.898-0.276c0.426-0.136,0.849-0.282,1.27-0.431c0.243-0.086,0.487-0.17,0.728-0.26
		c0.499-0.186,0.994-0.384,1.486-0.587c0.156-0.065,0.314-0.126,0.47-0.193c0.621-0.264,1.235-0.543,1.844-0.835
		c0.024-0.011,0.048-0.022,0.071-0.033c3.882-1.869,7.514-4.287,10.774-7.223l1.123-1.012l-0.025-0.052
		C189.687,80.748,195.085,69.065,195.085,56.139z M107.585,56.139c0-23.021,18.729-41.75,41.75-41.75s41.75,18.729,41.75,41.75
		c0,11.381-4.582,21.708-11.992,29.246c-4.305-7.261-11.099-12.69-19.05-15.278c4.306-3.242,6.966-8.369,6.966-13.968
		c0-9.649-7.851-17.5-17.5-17.5s-17.5,7.851-17.5,17.5c0,5.542,2.621,10.637,6.866,13.886c-8.06,2.553-14.944,8.013-19.298,15.36
		C112.167,77.846,107.585,67.519,107.585,56.139z M169.255,92.822c-0.022,0.012-0.045,0.024-0.067,0.037
		c-0.547,0.297-1.102,0.58-1.663,0.853c-0.055,0.026-0.109,0.054-0.164,0.08c-0.542,0.261-1.092,0.508-1.647,0.746
		c-0.064,0.027-0.126,0.056-0.19,0.083c-0.602,0.254-1.211,0.495-1.827,0.721c-0.009,0.003-0.017,0.007-0.026,0.01
		c-0.618,0.227-1.244,0.438-1.875,0.636c-0.17,0.053-0.342,0.098-0.513,0.149c-0.44,0.132-0.881,0.26-1.327,0.378
		c-0.27,0.071-0.541,0.133-0.813,0.199c-0.355,0.086-0.711,0.17-1.069,0.247c-0.295,0.063-0.592,0.12-0.889,0.177
		c-0.346,0.066-0.692,0.129-1.041,0.186c-0.298,0.049-0.597,0.095-0.897,0.138c-0.364,0.052-0.729,0.097-1.096,0.14
		c-0.284,0.033-0.567,0.066-0.852,0.093c-0.418,0.04-0.839,0.069-1.26,0.096c-0.236,0.015-0.472,0.035-0.708,0.046
		c-0.662,0.031-1.327,0.051-1.997,0.051c-0.002,0-0.004,0-0.007,0c-0.667,0-1.329-0.019-1.988-0.05
		c-0.242-0.011-0.482-0.032-0.723-0.048c-0.416-0.027-0.831-0.056-1.243-0.095c-0.29-0.028-0.579-0.062-0.868-0.095
		c-0.36-0.042-0.719-0.086-1.075-0.137c-0.306-0.044-0.612-0.091-0.917-0.141c-0.339-0.056-0.677-0.117-1.013-0.181
		c-0.306-0.058-0.612-0.117-0.916-0.182c-0.345-0.074-0.687-0.156-1.028-0.238c-0.285-0.069-0.571-0.134-0.854-0.209
		c-0.415-0.11-0.826-0.23-1.236-0.352c-0.201-0.06-0.405-0.114-0.605-0.176c-0.623-0.196-1.24-0.404-1.851-0.628
		c-0.044-0.016-0.086-0.034-0.13-0.05c-0.579-0.214-1.152-0.44-1.719-0.679c-0.087-0.037-0.173-0.077-0.259-0.114
		c-0.53-0.228-1.056-0.464-1.574-0.713c-0.074-0.035-0.147-0.073-0.221-0.109c-0.539-0.263-1.073-0.535-1.6-0.82
		c-0.042-0.022-0.083-0.045-0.124-0.068c-2.423-1.324-4.698-2.883-6.801-4.643c4.6-8.279,12.779-13.995,22.166-15.406l4.587,0.071
		l4.813-0.034c9.287,1.467,17.381,7.168,21.939,15.369C173.975,89.928,171.69,91.494,169.255,92.822z M136.009,56.139
		c0-7.444,6.056-13.5,13.5-13.5s13.5,6.056,13.5,13.5c0,5.792-3.692,10.929-9.188,12.782l-4.486,0.093l-4.231-0.127
		C139.664,67.007,136.009,61.884,136.009,56.139z"/>
	<g>
		<g>
			<rect x="103.107" y="150.597" fill="#c5c9d1" width="117.837" height="4"/>
			<rect x="103.107" y="117.097" fill="#c5c9d1" width="153.936" height="4"/>
			<rect x="103.107" y="128.264" fill="#c5c9d1" width="153.936" height="4"/>
			<polygon fill="#c5c9d1" points="103.107,139.43 103.107,143.43 220.944,143.43 257.043,143.43 257.043,139.43 220.944,139.43 			
				"/>
		</g>
		<path fill="#c5c9d1" d="M64.127,127.451c0-6.203-5.047-11.25-11.25-11.25s-11.25,5.047-11.25,11.25
			c0,9.237,6.704,16.921,15.499,18.484v-4.075c-2.482-0.567-4.727-1.76-6.562-3.401c0.747,0.157,1.52,0.242,2.313,0.242
			C59.081,138.701,64.127,133.654,64.127,127.451z M52.877,120.201c3.998,0,7.25,3.252,7.25,7.25c0,3.998-3.252,7.25-7.25,7.25
			s-7.25-3.252-7.25-7.25C45.627,123.453,48.88,120.201,52.877,120.201z"/>
		<path fill="#c5c9d1" d="M88.627,127.451c0-6.203-5.047-11.25-11.25-11.25s-11.25,5.047-11.25,11.25
			c0,9.237,6.704,16.921,15.499,18.484v-4.075c-2.482-0.567-4.727-1.76-6.562-3.401c0.747,0.157,1.52,0.242,2.313,0.242
			C83.581,138.701,88.627,133.654,88.627,127.451z M77.377,120.201c3.998,0,7.25,3.252,7.25,7.25c0,3.998-3.252,7.25-7.25,7.25
			s-7.25-3.252-7.25-7.25C70.127,123.453,73.38,120.201,77.377,120.201z"/>
	</g>
</g>
</svg>
