<?xml version="1.0" encoding="utf-8"?>
<!-- Generator: Adobe Illustrator 17.0.0, SVG Export Plug-In . SVG Version: 6.00 Build 0)  -->
<!DOCTYPE svg PUBLIC "-//W3C//DTD SVG 1.1//EN" "http://www.w3.org/Graphics/SVG/1.1/DTD/svg11.dtd">
<svg version="1.1" id="Layer_1" xmlns="http://www.w3.org/2000/svg" xmlns:xlink="http://www.w3.org/1999/xlink" x="0px" y="0px"
	 width="300px" height="180px" viewBox="0 0 300 180" enable-background="new 0 0 300 180" xml:space="preserve">
<g>
	<polygon fill="#c5c9d1" points="77.682,19.394 77.682,63.727 153.676,63.727 153.676,59.727 81.682,59.727 81.682,23.394 
		183.682,23.394 183.682,59.727 170.51,59.727 170.51,63.727 187.682,63.727 187.682,19.394 	"/>
	<path fill="#c5c9d1" d="M222.01,160.726h-68.765l-28.787-32.777c-3.79-4.315-3.362-10.91,0.952-14.7
		c1.902-1.67,4.342-2.59,6.871-2.59c2.998,0,5.853,1.291,7.83,3.542l10.565,12.031V49.976c0-5.743,4.673-10.416,10.417-10.416
		c5.743,0,10.416,4.673,10.416,10.416v31.467c1.77-1.389,3.999-2.217,6.417-2.217c5.65,0,10.264,4.521,10.413,10.136
		c1.771-1.39,4-2.219,6.42-2.219c5.65,0,10.264,4.521,10.413,10.136c1.771-1.389,4.001-2.219,6.421-2.219
		c5.743,0,10.416,4.673,10.416,10.416V160.726z M155.055,156.726h62.954v-51.25c0-3.538-2.878-6.416-6.416-6.416
		s-6.417,2.878-6.417,6.416h-4V97.56c0-3.538-2.879-6.417-6.417-6.417s-6.416,2.879-6.416,6.417h-4v-7.917
		c0-3.538-2.879-6.417-6.417-6.417s-6.417,2.879-6.417,6.417h-4V49.976c0-3.538-2.878-6.416-6.416-6.416s-6.417,2.878-6.417,6.416
		v86.871l-17.571-20.007c-1.218-1.387-2.977-2.182-4.824-2.182c-1.557,0-3.06,0.566-4.23,1.596
		c-2.658,2.334-2.922,6.396-0.587,9.056L155.055,156.726z"/>
</g>
</svg>
