<?xml version="1.0" encoding="utf-8"?>
<!-- Generator: Adobe Illustrator 17.0.0, SVG Export Plug-In . SVG Version: 6.00 Build 0)  -->
<!DOCTYPE svg PUBLIC "-//W3C//DTD SVG 1.1//EN" "http://www.w3.org/Graphics/SVG/1.1/DTD/svg11.dtd">
<svg version="1.1" id="Layer_1" xmlns="http://www.w3.org/2000/svg" xmlns:xlink="http://www.w3.org/1999/xlink" x="0px" y="0px"
	 width="300px" height="180px" viewBox="0 0 300 180" enable-background="new 0 0 300 180" xml:space="preserve">
<g>
	<polygon fill="#c5c9d1" points="179.207,25.716 179.207,29.716 205.541,29.716 205.541,144.466 100.791,144.466 100.791,29.716 
		125.221,29.716 125.221,25.716 96.791,25.716 96.791,148.466 209.541,148.466 209.541,25.716 	"/>
	<path fill="#c5c9d1" d="M125.124,7.176v0.211v3.789v38.405l26.042-17.237v26.621h4V32.344l26.042,17.237V11.176V7.387V7.176
		H125.124z M175.482,11.176l-22.317,14.772l-22.317-14.772H175.482z M149.542,28.622l-20.418,13.515V14.831l20.418,13.515
		l-0.208,0.138L149.542,28.622z M177.207,42.137l-20.418-13.515l0.208-0.138l-0.208-0.138l20.418-13.515V42.137z"/>
	<path fill="#33C6F4" d="M144.652,98.037c-0.263,0-0.527-0.059-0.771-0.179c-3.463-1.698-5.315-7.829-6.864-14.167
		c-0.771,1.617-1.662,3.551-2.414,5.185c-4.143,8.99-4.222,9.162-5.646,9.162c-1.822,0-2.051-1.626-2.662-5.973
		c-0.372-2.647-0.771-6-1.156-9.244c-0.284-2.394-0.551-4.639-0.771-6.275c-0.129-0.958,0.544-1.838,1.502-1.967
		c0.965-0.131,1.838,0.543,1.967,1.502c0.222,1.65,0.49,3.913,0.777,6.327c0.314,2.646,0.719,6.042,1.085,8.724
		c0.575-1.228,1.188-2.558,1.725-3.721c4.476-9.714,4.646-9.995,6.094-9.995c1.592,0,1.867,1.148,2.685,4.557
		c0.543,2.265,1.564,6.524,2.896,9.526c0.368-5.384,1.426-13.871,4.463-17.7c0.601-0.758,1.7-0.884,2.459-0.284
		c0.757,0.601,0.884,1.702,0.283,2.458c-2.691,3.392-3.901,13.921-3.901,20.314c0,0.604-0.312,1.166-0.824,1.485
		C145.296,97.948,144.974,98.037,144.652,98.037z"/>
	<path fill="#33C6F4" d="M155.809,98.037c-1.545,0-2.963-0.686-3.99-1.93c-1.626-1.969-2.195-5.226-1.523-8.711
		c1.079-5.596,4.968-9.979,8.853-9.979c1.545,0,2.963,0.686,3.99,1.93c1.626,1.969,2.195,5.226,1.523,8.711
		C163.583,93.654,159.694,98.037,155.809,98.037z M159.148,80.916c-1.91,0-4.604,2.933-5.415,7.142
		c-0.463,2.398-0.154,4.683,0.785,5.821c0.366,0.443,0.788,0.659,1.291,0.659c1.91,0,4.604-2.933,5.415-7.142
		c0.463-2.398,0.154-4.683-0.785-5.821C160.073,81.132,159.651,80.916,159.148,80.916z"/>
	<path fill="#33C6F4" d="M172.93,98.037c-1.545,0-2.963-0.686-3.99-1.93c-1.626-1.969-2.195-5.226-1.523-8.711
		c1.079-5.596,4.968-9.979,8.853-9.979c1.545,0,2.963,0.686,3.99,1.93c1.626,1.969,2.195,5.226,1.523,8.711
		C180.704,93.654,176.815,98.037,172.93,98.037z M176.269,80.916c-1.91,0-4.604,2.933-5.415,7.142
		c-0.463,2.398-0.154,4.683,0.785,5.821c0.366,0.443,0.788,0.659,1.291,0.659c1.91,0,4.604-2.933,5.415-7.142
		c0.463-2.398,0.154-4.683-0.785-5.821C177.194,81.132,176.772,80.916,176.269,80.916z"/>
</g>
</svg>
